G04*
G04 #@! TF.GenerationSoftware,Altium Limited,Altium Designer,18.0.7 (293)*
G04*
G04 Layer_Physical_Order=2*
G04 Layer_Color=16711680*
%FSLAX25Y25*%
%MOIN*%
G70*
G01*
G75*
%ADD10C,0.01500*%
%ADD11C,0.03000*%
%ADD12R,0.09000X0.09055*%
%ADD13R,0.07087X0.12992*%
%ADD14R,0.05500X0.03937*%
%ADD15R,0.03740X0.03543*%
%ADD16R,0.12992X0.07087*%
%ADD17R,0.13500X0.06000*%
%ADD18R,0.03937X0.05500*%
%ADD19R,0.06000X0.13500*%
%ADD20R,0.04724X0.03543*%
%ADD21R,0.04724X0.03543*%
%ADD22O,0.07874X0.02165*%
%ADD23R,0.09449X0.12992*%
%ADD24R,0.09449X0.03937*%
%ADD25R,0.03937X0.06693*%
%ADD26R,0.06693X0.03937*%
%ADD27R,0.23622X0.23622*%
%ADD28R,0.03150X0.07087*%
%ADD29R,0.07087X0.03150*%
%ADD30R,0.04331X0.03937*%
%ADD31R,0.03543X0.04724*%
%ADD32R,0.03543X0.04724*%
%ADD33O,0.02362X0.07087*%
G04:AMPARAMS|DCode=34|XSize=62.99mil|YSize=118.11mil|CornerRadius=15.75mil|HoleSize=0mil|Usage=FLASHONLY|Rotation=90.000|XOffset=0mil|YOffset=0mil|HoleType=Round|Shape=RoundedRectangle|*
%AMROUNDEDRECTD34*
21,1,0.06299,0.08661,0,0,90.0*
21,1,0.03150,0.11811,0,0,90.0*
1,1,0.03150,0.04331,0.01575*
1,1,0.03150,0.04331,-0.01575*
1,1,0.03150,-0.04331,-0.01575*
1,1,0.03150,-0.04331,0.01575*
%
%ADD34ROUNDEDRECTD34*%
G04:AMPARAMS|DCode=35|XSize=228.35mil|YSize=244.1mil|CornerRadius=57.09mil|HoleSize=0mil|Usage=FLASHONLY|Rotation=90.000|XOffset=0mil|YOffset=0mil|HoleType=Round|Shape=RoundedRectangle|*
%AMROUNDEDRECTD35*
21,1,0.22835,0.12992,0,0,90.0*
21,1,0.11417,0.24410,0,0,90.0*
1,1,0.11417,0.06496,0.05709*
1,1,0.11417,0.06496,-0.05709*
1,1,0.11417,-0.06496,-0.05709*
1,1,0.11417,-0.06496,0.05709*
%
%ADD35ROUNDEDRECTD35*%
%ADD36R,0.03543X0.03740*%
%ADD37R,0.33465X0.27559*%
%ADD38R,0.03543X0.14094*%
%ADD39C,0.06000*%
%ADD40O,0.07087X0.08661*%
%ADD41R,0.07087X0.08661*%
%ADD42O,0.07500X0.09000*%
%ADD43R,0.07500X0.09000*%
%ADD44C,0.27559*%
%ADD45C,0.05000*%
%ADD46C,0.09843*%
%ADD47R,0.09843X0.09843*%
%ADD48O,0.05906X0.09055*%
%ADD49R,0.05906X0.09055*%
%ADD50O,0.10000X0.06000*%
%ADD51O,0.10000X0.05500*%
%ADD52O,0.10000X0.06500*%
%ADD53R,0.10000X0.06500*%
%ADD54C,0.06000*%
%ADD55C,0.07000*%
%ADD56R,0.07000X0.07000*%
%ADD57R,0.09843X0.09843*%
%ADD58C,0.07874*%
G36*
X356703Y392034D02*
X359034Y391570D01*
X361285Y390806D01*
X363418Y389755D01*
X365394Y388434D01*
X367181Y386867D01*
X368749Y385079D01*
X370070Y383103D01*
X371121Y380971D01*
X371885Y378719D01*
X372349Y376388D01*
X372500Y374086D01*
X372486Y374016D01*
X372486Y172045D01*
X367922Y167480D01*
X367619Y167480D01*
Y167480D01*
X362717Y167480D01*
X247372D01*
X241572Y173280D01*
X241572Y226496D01*
X240946Y227121D01*
Y228998D01*
X238478D01*
Y231498D01*
X240946D01*
Y231880D01*
X242305D01*
X244472Y229714D01*
X244472Y183780D01*
X252629Y175623D01*
Y174687D01*
X255879D01*
Y173437D01*
X257129D01*
Y170968D01*
X257283D01*
X257872Y170380D01*
X362717Y170380D01*
X367317Y174980D01*
X367317Y312635D01*
X346144Y333808D01*
X346144Y352016D01*
X324144Y374016D01*
X228836Y374016D01*
X214924Y387904D01*
X159727Y387887D01*
X145856Y374016D01*
Y370253D01*
X156605Y359504D01*
X175518Y359504D01*
X183644Y351378D01*
X183644Y337504D01*
X182944Y336804D01*
X178344D01*
X177544Y337604D01*
Y338150D01*
X178228D01*
Y340618D01*
Y343087D01*
X177544D01*
Y350104D01*
X173944Y353704D01*
X166944Y353704D01*
X164444Y351204D01*
X164444Y346004D01*
X163444Y345004D01*
X162946D01*
Y345667D01*
X158009D01*
Y344769D01*
X156144Y342904D01*
X156144Y336604D01*
X157944Y334804D01*
X158009D01*
Y333994D01*
X160478D01*
Y332744D01*
X161728D01*
Y329494D01*
X162946D01*
Y333202D01*
X164144Y332004D01*
X164144Y328604D01*
X166044Y326704D01*
Y321039D01*
X165728D01*
Y316996D01*
Y312953D01*
X166044D01*
Y309804D01*
X165144Y308904D01*
X156644D01*
X146572Y318976D01*
Y322408D01*
X149413D01*
Y324408D01*
X146944D01*
Y326907D01*
X149413D01*
Y328907D01*
X146572D01*
Y356176D01*
X128732Y374016D01*
X43656Y374016D01*
X21844Y352204D01*
Y348004D01*
X8101Y334261D01*
Y315261D01*
X11557Y311804D01*
Y299290D01*
X17044Y293804D01*
X49644Y293804D01*
X52844Y297004D01*
X52844Y355304D01*
X58744Y361204D01*
X72244Y361204D01*
X73544Y359904D01*
X73544Y352804D01*
X72444Y351704D01*
X62144Y351704D01*
X59544Y349104D01*
Y344604D01*
X61444Y342704D01*
X82544D01*
X90544Y334704D01*
Y325704D01*
X89147Y324307D01*
X81203Y324345D01*
X79844Y325704D01*
X79844Y335404D01*
X74944Y340304D01*
X61644D01*
X59544Y338204D01*
X59544Y285404D01*
X62244Y282704D01*
X83444Y282704D01*
X90544Y275604D01*
X90544Y269748D01*
X88900Y268104D01*
X81644D01*
X79844Y269904D01*
X79844Y275404D01*
X74944Y280304D01*
X58444Y280304D01*
X50344Y288404D01*
X18788Y288404D01*
X11557Y281173D01*
Y199493D01*
X27150Y183900D01*
Y147791D01*
X29337Y145604D01*
X31039D01*
Y144163D01*
X33508D01*
Y141663D01*
X31039D01*
Y140204D01*
X28744D01*
X24850Y136310D01*
X24850Y114850D01*
X28919Y110781D01*
X28367Y110671D01*
X27681Y110212D01*
X27223Y109526D01*
X27062Y108716D01*
Y108392D01*
X33508D01*
Y105892D01*
X27062D01*
Y105567D01*
X27223Y104757D01*
X27681Y104071D01*
X28367Y103612D01*
X29114Y103464D01*
X27150Y101500D01*
X24950Y99200D01*
X24850Y99100D01*
Y42400D01*
X43650Y23600D01*
Y10300D01*
X46550Y7400D01*
X70000Y7400D01*
X73800Y11200D01*
X73800Y21900D01*
X75499Y23599D01*
X78300Y26400D01*
Y32250D01*
X81650Y35600D01*
X86550D01*
X89050Y33100D01*
Y6399D01*
X181731Y6399D01*
X187506Y12173D01*
X187506Y22794D01*
X186110Y24190D01*
X186110Y35200D01*
X202600D01*
X202600Y24596D01*
X201250Y23247D01*
Y12152D01*
X207003Y6399D01*
X213832Y6399D01*
X217432Y9999D01*
X217432Y97199D01*
X214432Y100199D01*
X197032Y100199D01*
X194232Y97399D01*
X194232Y95599D01*
X192606Y93974D01*
X187916Y93991D01*
X188205Y94423D01*
X188335Y95079D01*
Y96191D01*
X186621D01*
X184907D01*
Y95079D01*
X185020Y94511D01*
X184259Y95271D01*
X184259Y100427D01*
X185632Y101799D01*
X189232Y101799D01*
X190632Y103199D01*
Y106099D01*
X193152Y108620D01*
Y107352D01*
X195621D01*
X198090D01*
Y108799D01*
X203732Y108799D01*
X206132Y111199D01*
Y123599D01*
X207049Y124516D01*
X213315D01*
X214432Y123399D01*
X214432Y110599D01*
X213332Y109499D01*
X207032Y109499D01*
X205132Y107599D01*
X205132Y104499D01*
X206536Y103095D01*
X216036Y103095D01*
X220832Y98299D01*
X220832Y6699D01*
X215662Y1529D01*
X212581D01*
X194062Y1529D01*
X194062Y1529D01*
X19685D01*
X19616Y1516D01*
X17313Y1667D01*
X14981Y2130D01*
X12730Y2895D01*
X10598Y3946D01*
X8621Y5267D01*
X6834Y6834D01*
X5266Y8621D01*
X3946Y10598D01*
X2894Y12730D01*
X2130Y14981D01*
X1666Y17313D01*
X1515Y19616D01*
X1529Y19685D01*
X1529D01*
X1529Y19685D01*
X1529Y374016D01*
X1515Y374086D01*
X1666Y376388D01*
X2130Y378719D01*
X2894Y380971D01*
X3946Y383103D01*
X5266Y385079D01*
X6834Y386867D01*
X8621Y388434D01*
X10598Y389755D01*
X12730Y390806D01*
X14981Y391570D01*
X17312Y392034D01*
X19615Y392185D01*
X19685Y392171D01*
X354330Y392171D01*
X354331Y392171D01*
Y392171D01*
X354400Y392185D01*
X356703Y392034D01*
D02*
G37*
G36*
X263017Y331675D02*
X263017Y320175D01*
X261817Y318975D01*
X255937Y318975D01*
X254817Y320096D01*
Y329175D01*
X246917Y337075D01*
X200845Y337075D01*
X199917Y338004D01*
X199917Y343375D01*
X200816Y344275D01*
X250416Y344275D01*
X263017Y331675D01*
D02*
G37*
G36*
X139772Y329780D02*
Y328907D01*
X139194D01*
Y325658D01*
Y322408D01*
X139772D01*
Y314380D01*
X130037Y304646D01*
X105172Y304646D01*
Y305079D01*
X105482D01*
Y306693D01*
Y308307D01*
X105172D01*
Y308680D01*
X126872Y308680D01*
X134072Y315880D01*
Y329465D01*
X135087Y330480D01*
X139072D01*
X139772Y329780D01*
D02*
G37*
G36*
X171805Y335994D02*
X170728D01*
Y332744D01*
Y329494D01*
X171805D01*
Y328907D01*
X170728D01*
Y325658D01*
Y322408D01*
X171805D01*
X171805Y297013D01*
X154788Y279996D01*
X135336Y279996D01*
X122305Y266965D01*
X122305Y243813D01*
X120467Y241976D01*
X120467Y236234D01*
X122305Y234396D01*
X147105D01*
X151505Y229996D01*
X166556Y229996D01*
X167725Y228827D01*
X165728D01*
Y226358D01*
Y223890D01*
X169702D01*
Y227596D01*
X189887D01*
X192472Y230180D01*
X200522Y230180D01*
X201472Y229231D01*
X201472Y220430D01*
X200490D01*
Y220581D01*
X196446D01*
X192403D01*
Y220430D01*
X192213D01*
X189747Y222896D01*
X152105Y222896D01*
X147505Y218296D01*
X123205Y218296D01*
X113905Y227596D01*
Y239113D01*
X119369Y244577D01*
X119374D01*
Y244582D01*
X119405Y244613D01*
X119405Y269618D01*
X125097Y275310D01*
X125269Y275442D01*
X125400Y275613D01*
X131097Y281310D01*
X131269Y281442D01*
X131400Y281613D01*
X134383Y284596D01*
X146105Y284596D01*
X167105Y305596D01*
X167105Y322408D01*
X168228D01*
Y325658D01*
Y328907D01*
X167105D01*
Y329494D01*
X168228D01*
Y332744D01*
Y335994D01*
X167105D01*
Y335996D01*
X171805D01*
Y335994D01*
D02*
G37*
G36*
X165728Y241953D02*
X166280D01*
Y241293D01*
X169691Y237882D01*
X165728D01*
Y236663D01*
X169702D01*
Y237871D01*
X171655Y235918D01*
Y233514D01*
X185647D01*
Y235793D01*
X201903Y235793D01*
X205872Y231825D01*
Y193871D01*
X199100Y187100D01*
X170693Y187100D01*
X168732Y185139D01*
X168732Y179508D01*
X162832Y173607D01*
Y162399D01*
X162807D01*
Y155674D01*
X162812D01*
Y155080D01*
X161032Y153299D01*
X161032Y139999D01*
X156332Y135299D01*
X150258D01*
Y139011D01*
X148258D01*
Y136543D01*
X145758D01*
Y139011D01*
X143758D01*
Y135299D01*
X136635D01*
X135235Y133899D01*
X132842D01*
Y134577D01*
X130472D01*
X128102D01*
Y133899D01*
X123123D01*
X122123Y132899D01*
X119866D01*
Y134577D01*
X117397D01*
Y135827D01*
X116147D01*
Y139077D01*
X115182D01*
Y139699D01*
X154232D01*
X157432Y142899D01*
X157432Y153199D01*
X160032Y155799D01*
X160032Y176017D01*
X160547D01*
Y179267D01*
Y182517D01*
X160032D01*
Y188399D01*
X160032Y213099D01*
X168732D01*
X168732Y194568D01*
X170700Y192600D01*
X197590Y192600D01*
X202500Y197510D01*
X202500Y229796D01*
X200996Y231300D01*
X191700D01*
X189180Y228780D01*
X185647D01*
Y231014D01*
X171655D01*
Y228780D01*
X170693D01*
X170202Y229271D01*
Y229327D01*
X170146D01*
X167677Y231796D01*
X156505Y231796D01*
X150988Y237313D01*
X123705D01*
Y237417D01*
X123858D01*
Y239886D01*
Y242354D01*
X123705D01*
Y242496D01*
X134966Y242496D01*
X135087Y242480D01*
X135180Y242462D01*
X135273Y242480D01*
X135394Y242496D01*
X140966D01*
X141087Y242480D01*
X141180Y242462D01*
X141273Y242480D01*
X141394Y242496D01*
X146966D01*
X147087Y242480D01*
X147180Y242462D01*
X147273Y242480D01*
X147394Y242496D01*
X152966Y242496D01*
X153087Y242480D01*
X153180Y242462D01*
X153273Y242480D01*
X153394Y242496D01*
X162403D01*
Y241953D01*
X163228D01*
Y245996D01*
X165728D01*
Y241953D01*
D02*
G37*
G36*
X262817Y302575D02*
X262817Y279175D01*
X292017Y249975D01*
X331780D01*
X340317Y241439D01*
Y231775D01*
X341516Y230575D01*
X348517Y230575D01*
X350317Y228775D01*
X350317Y223075D01*
X349072Y221831D01*
X341261D01*
X334517Y228575D01*
X334517Y241275D01*
X330416Y245375D01*
X287216D01*
X255316Y277275D01*
X255316Y302075D01*
X256917Y303675D01*
X261717D01*
X262817Y302575D01*
D02*
G37*
G36*
X192403Y211889D02*
Y206400D01*
X196446D01*
Y203900D01*
X192403D01*
Y198775D01*
X175240D01*
X170916Y203099D01*
X170916Y212385D01*
X168788Y214513D01*
X148922D01*
X146805Y212396D01*
X146805Y202132D01*
X142753Y198080D01*
X114172Y198080D01*
X103491Y187400D01*
X68009Y187400D01*
X64704Y184095D01*
X64704Y177195D01*
X54500Y187400D01*
X61780Y194680D01*
X98172D01*
X105272Y201780D01*
X141372Y201780D01*
X143905Y204314D01*
Y213096D01*
X152522Y221713D01*
X182578Y221713D01*
X192403Y211889D01*
D02*
G37*
G36*
X154516Y191431D02*
X154516Y182517D01*
X154047D01*
Y179267D01*
Y176017D01*
X154516D01*
Y175275D01*
X150516D01*
X149805Y175987D01*
X149805Y191487D01*
X147011Y194280D01*
X137722Y194280D01*
X136426Y192985D01*
X136426Y178785D01*
X132940Y175299D01*
Y178644D01*
X131722D01*
Y175394D01*
X130472D01*
Y174144D01*
X128003D01*
Y172412D01*
X125772Y170180D01*
Y166580D01*
X127372Y164980D01*
X127504D01*
Y162982D01*
X133441D01*
Y164811D01*
X135444Y162808D01*
Y157353D01*
X134239Y156148D01*
X126854D01*
X121572Y161430D01*
Y180575D01*
X118884D01*
Y181230D01*
X116416D01*
Y183730D01*
X118884D01*
Y184175D01*
X128003D01*
Y183730D01*
X132940D01*
Y184799D01*
X133872Y185730D01*
X133872Y195030D01*
X135817Y196975D01*
X148973Y196975D01*
X154516Y191431D01*
D02*
G37*
G36*
X54500Y187400D02*
X68200Y173700D01*
X68200Y154300D01*
X64500Y150600D01*
Y150500D01*
X57200D01*
X57000Y150300D01*
X53500Y153800D01*
Y159600D01*
X47600Y165500D01*
X47350D01*
Y169026D01*
X43307D01*
X39264D01*
Y165500D01*
X38000D01*
X34600Y168900D01*
Y182600D01*
X39400Y187400D01*
X54500Y187400D01*
D02*
G37*
G36*
X81728Y163279D02*
X89851D01*
X96232Y156899D01*
X96232Y129799D01*
X99532Y126499D01*
Y114399D01*
X98583D01*
Y114892D01*
X94039D01*
Y114399D01*
X93132D01*
X93132Y155799D01*
X89732Y159199D01*
X86595Y159199D01*
X84100Y156704D01*
Y152500D01*
X86600Y150000D01*
Y143700D01*
X85300Y142400D01*
X54200D01*
X43800Y152800D01*
X41642D01*
Y156230D01*
X36642D01*
Y158730D01*
X41642D01*
Y162200D01*
X45000D01*
X47900Y159300D01*
X47900Y155800D01*
X56400Y147300D01*
X67832D01*
X73200Y152667D01*
X73200Y161100D01*
X75400Y163300D01*
X81708D01*
X81728Y163279D01*
D02*
G37*
G36*
X166828Y156174D02*
X167332D01*
Y153799D01*
X165431Y151899D01*
X165432Y110299D01*
X165432Y104232D01*
X160671Y99471D01*
X147329Y99471D01*
X76571D01*
X75400Y98300D01*
X75400Y96100D01*
X76600Y94900D01*
X76600Y71400D01*
X76600D01*
Y54431D01*
X81574Y49457D01*
X105389D01*
X115232Y39614D01*
Y13299D01*
X118688Y9843D01*
X145003Y9843D01*
X147532Y12371D01*
Y23199D01*
X149626Y25293D01*
X159338D01*
X161328Y23303D01*
X161328Y10995D01*
X157832Y7499D01*
X103132Y7499D01*
X99332Y11299D01*
X99332Y37294D01*
X94327Y42299D01*
X74086D01*
X66929Y49457D01*
X66929Y79724D01*
X66929D01*
X66929Y99471D01*
X64200Y102200D01*
X52000Y102200D01*
X48000Y106200D01*
Y129400D01*
X56400Y137800D01*
X85800Y137800D01*
X86700Y136900D01*
X86700Y131600D01*
X85800Y130700D01*
X79800Y130700D01*
X77900Y128800D01*
X77900Y112400D01*
X82800Y107500D01*
X158884Y107500D01*
X162202Y110818D01*
X162202Y152899D01*
X163832Y154529D01*
Y156174D01*
X164328D01*
Y159037D01*
X166828D01*
Y156174D01*
D02*
G37*
G36*
X346872Y114016D02*
X346872Y108583D01*
X346390D01*
Y108750D01*
X342908D01*
X339425D01*
Y108583D01*
X339007D01*
X339007Y115080D01*
X337007Y117080D01*
X318964Y117080D01*
X314207Y112323D01*
Y104380D01*
X319007Y99580D01*
X331907D01*
X335907Y95580D01*
X335907Y65680D01*
X343107Y58480D01*
X343107Y41880D01*
X342353Y41127D01*
Y46677D01*
X339560D01*
Y40931D01*
X342158D01*
X334007Y32780D01*
X326607Y32780D01*
X308389Y32780D01*
X302205Y26596D01*
X302205Y12996D01*
X300605Y11396D01*
X290542D01*
X288628Y13310D01*
X288628Y22919D01*
X305089Y39380D01*
X329207Y39380D01*
X331907Y42080D01*
Y58581D01*
X318708Y71780D01*
X312307D01*
X308207Y75880D01*
X308207Y116280D01*
X313346Y121419D01*
X339470D01*
X346872Y114016D01*
D02*
G37*
G36*
X272481Y121221D02*
X280670Y113032D01*
X280670Y107599D01*
X280188D01*
Y107766D01*
X276706D01*
X273223D01*
Y107599D01*
X272805D01*
X272805Y114096D01*
X270805Y116096D01*
X252762Y116096D01*
X248005Y111339D01*
Y103396D01*
X252805Y98596D01*
X265705D01*
X269705Y94596D01*
X269705Y64696D01*
X276905Y57496D01*
X276905Y40896D01*
X267805Y31796D01*
X260405Y31796D01*
X255305Y26696D01*
X255305Y13596D01*
X253105Y11396D01*
X242905D01*
X241305Y12996D01*
Y26832D01*
X252869Y38396D01*
X263005D01*
X265705Y41096D01*
Y57597D01*
X252506Y70796D01*
X246105D01*
X242005Y74896D01*
X242005Y115296D01*
X247930Y121221D01*
X272481Y121221D01*
D02*
G37*
G36*
X50300Y100600D02*
Y94400D01*
X57700Y87000D01*
Y68100D01*
X50800Y61200D01*
X29200Y61200D01*
X26700Y63700D01*
X26700Y66200D01*
Y70365D01*
X28435Y72100D01*
X33500D01*
X37600Y76200D01*
X37600Y99967D01*
X40532Y102900D01*
X48000D01*
X50300Y100600D01*
D02*
G37*
G36*
X362603Y98298D02*
X367007Y93894D01*
Y62696D01*
X359507Y55196D01*
X359507Y47698D01*
X323205Y11396D01*
X311257Y11396D01*
X309005Y13648D01*
X309005Y22496D01*
X311905Y25396D01*
X334313Y25396D01*
X350539Y41623D01*
X350539Y58256D01*
X350955Y58533D01*
X351263Y58406D01*
Y62691D01*
Y66975D01*
X350276Y66566D01*
X349349Y65855D01*
X348638Y64928D01*
X348190Y63849D01*
X348038Y62691D01*
X348062Y62511D01*
X347613Y62290D01*
X346272Y63631D01*
X346272Y66896D01*
X347472Y68096D01*
X360007D01*
X362507Y70596D01*
X362507Y83596D01*
X357007Y89096D01*
X343507Y89096D01*
X341607Y90996D01*
X341607Y96265D01*
X343641Y98299D01*
X362603Y98298D01*
D02*
G37*
G36*
X295401Y98299D02*
X300805Y92895D01*
X300805Y62696D01*
X293305Y55196D01*
Y35396D01*
X276151Y18242D01*
Y13942D01*
X273605Y11396D01*
X263905D01*
X261605Y13696D01*
X261605Y22696D01*
X264105Y25196D01*
X272205D01*
X284337Y37328D01*
X284337Y58256D01*
X284753Y58533D01*
X285061Y58406D01*
Y62691D01*
Y66975D01*
X284074Y66566D01*
X283147Y65855D01*
X282436Y64928D01*
X281989Y63849D01*
X281836Y62691D01*
X281860Y62511D01*
X281411Y62290D01*
X280070Y63631D01*
X280070Y66896D01*
X281270Y68096D01*
X293805D01*
X296305Y70596D01*
X296305Y83596D01*
X290805Y89096D01*
X277305Y89096D01*
X275405Y90996D01*
X275405Y96265D01*
X277440Y98299D01*
X295401Y98299D01*
D02*
G37*
G36*
X85772Y96800D02*
Y84242D01*
X120236D01*
Y96800D01*
X128200D01*
X154700Y70300D01*
X168431Y70300D01*
X169432Y69299D01*
Y62999D01*
X171231Y61200D01*
X189332Y61200D01*
X191632Y63499D01*
X191632Y68899D01*
X193332Y70599D01*
X198732D01*
X201432Y67899D01*
X201432Y52815D01*
X195582D01*
Y49315D01*
X194332D01*
Y48065D01*
X187082D01*
Y46799D01*
X185632D01*
X181932Y50499D01*
X146221Y50499D01*
Y51254D01*
X142971D01*
Y52504D01*
X141720D01*
Y54972D01*
X139827D01*
X134800Y60000D01*
X125051D01*
Y59992D01*
X80957D01*
Y60000D01*
X80949D01*
X77700Y63249D01*
X77700Y96800D01*
X85772D01*
D02*
G37*
G36*
X182600Y24596D02*
X181206Y23202D01*
X181206Y13600D01*
X178577Y10971D01*
X170235Y10971D01*
X167506Y13700D01*
X167506Y22794D01*
X166110Y24190D01*
X166110Y35200D01*
X182600D01*
X182600Y24596D01*
D02*
G37*
G36*
X130172Y35500D02*
X131000Y34672D01*
X131000Y25300D01*
X134200Y22100D01*
Y13600D01*
X131571Y10971D01*
X123229Y10971D01*
X120500Y13700D01*
Y22206D01*
X123652Y25358D01*
Y34552D01*
X124600Y35500D01*
X130172Y35500D01*
D02*
G37*
G36*
X49500Y50500D02*
Y46169D01*
X61811Y33858D01*
Y26772D01*
X63977Y24606D01*
X67913D01*
X70866Y21654D01*
Y12795D01*
X67913Y9843D01*
X53543Y9843D01*
X50000Y13386D01*
X50000Y29528D01*
X37000Y42527D01*
Y49984D01*
X40016Y53000D01*
X47000D01*
X49500Y50500D01*
D02*
G37*
%LPC*%
G36*
X355581Y388241D02*
Y375266D01*
X368556D01*
X368478Y376256D01*
X367953Y378442D01*
X367093Y380519D01*
X365919Y382435D01*
X364459Y384144D01*
X362750Y385604D01*
X360834Y386778D01*
X358757Y387638D01*
X356571Y388163D01*
X355581Y388241D01*
D02*
G37*
G36*
X353081D02*
X352090Y388163D01*
X349904Y387638D01*
X347828Y386778D01*
X345912Y385604D01*
X344202Y384144D01*
X342743Y382435D01*
X341568Y380519D01*
X340708Y378442D01*
X340183Y376256D01*
X340105Y375266D01*
X353081D01*
Y388241D01*
D02*
G37*
G36*
X20935D02*
Y375266D01*
X33910D01*
X33832Y376256D01*
X33308Y378442D01*
X32447Y380519D01*
X31273Y382435D01*
X29813Y384144D01*
X28104Y385604D01*
X26188Y386778D01*
X24111Y387638D01*
X21926Y388163D01*
X20935Y388241D01*
D02*
G37*
G36*
X18435D02*
X17444Y388163D01*
X15259Y387638D01*
X13182Y386778D01*
X11266Y385604D01*
X9557Y384144D01*
X8097Y382435D01*
X6922Y380519D01*
X6062Y378442D01*
X5538Y376256D01*
X5460Y375266D01*
X18435D01*
Y388241D01*
D02*
G37*
G36*
X368556Y372766D02*
X355581D01*
Y359790D01*
X356571Y359868D01*
X358757Y360393D01*
X360834Y361253D01*
X362750Y362428D01*
X364459Y363887D01*
X365919Y365597D01*
X367093Y367513D01*
X367953Y369589D01*
X368478Y371775D01*
X368556Y372766D01*
D02*
G37*
G36*
X353081D02*
X340105D01*
X340183Y371775D01*
X340708Y369589D01*
X341568Y367513D01*
X342743Y365597D01*
X344202Y363887D01*
X345912Y362428D01*
X347828Y361253D01*
X349904Y360393D01*
X352090Y359868D01*
X353081Y359790D01*
Y372766D01*
D02*
G37*
G36*
X33910D02*
X20935D01*
Y359790D01*
X21926Y359868D01*
X24111Y360393D01*
X26188Y361253D01*
X28104Y362428D01*
X29813Y363887D01*
X31273Y365597D01*
X32447Y367513D01*
X33308Y369589D01*
X33832Y371775D01*
X33910Y372766D01*
D02*
G37*
G36*
X18435D02*
X5460D01*
X5538Y371775D01*
X6062Y369589D01*
X6922Y367513D01*
X8097Y365597D01*
X9557Y363887D01*
X11266Y362428D01*
X13182Y361253D01*
X15259Y360393D01*
X17444Y359868D01*
X18435Y359790D01*
Y372766D01*
D02*
G37*
G36*
X72429Y360246D02*
X68179D01*
Y357746D01*
X72429D01*
Y360246D01*
D02*
G37*
G36*
X65679D02*
X61429D01*
Y357746D01*
X65679D01*
Y360246D01*
D02*
G37*
G36*
X72429Y355246D02*
X68179D01*
Y352746D01*
X72429D01*
Y355246D01*
D02*
G37*
G36*
X65679D02*
X61429D01*
Y352746D01*
X65679D01*
Y355246D01*
D02*
G37*
G36*
X162946Y350167D02*
X161728D01*
Y348167D01*
X162946D01*
Y350167D01*
D02*
G37*
G36*
X159228D02*
X158009D01*
Y348167D01*
X159228D01*
Y350167D01*
D02*
G37*
G36*
X183324Y343087D02*
X180728D01*
Y341868D01*
X183324D01*
Y343087D01*
D02*
G37*
G36*
Y339368D02*
X180728D01*
Y338150D01*
X183324D01*
Y339368D01*
D02*
G37*
G36*
X356867Y338685D02*
Y334631D01*
X360920D01*
X360898Y334797D01*
X360352Y336115D01*
X359483Y337248D01*
X358351Y338117D01*
X357032Y338663D01*
X356867Y338685D01*
D02*
G37*
G36*
X354366Y338685D02*
X354201Y338663D01*
X352883Y338117D01*
X351750Y337248D01*
X350881Y336115D01*
X350335Y334797D01*
X350313Y334631D01*
X354366D01*
Y338685D01*
D02*
G37*
G36*
X159228Y331494D02*
X158009D01*
Y329494D01*
X159228D01*
Y331494D01*
D02*
G37*
G36*
X354366Y332131D02*
X350313D01*
X350335Y331966D01*
X350881Y330647D01*
X351750Y329515D01*
X352883Y328646D01*
X354201Y328100D01*
X354366Y328078D01*
Y332131D01*
D02*
G37*
G36*
X360920D02*
X356867D01*
Y328078D01*
X357032Y328100D01*
X358351Y328646D01*
X359483Y329515D01*
X360352Y330647D01*
X360898Y331966D01*
X360920Y332131D01*
D02*
G37*
G36*
X88327Y328307D02*
X86722D01*
Y327943D01*
X89305D01*
X88944Y328184D01*
X88327Y328307D01*
D02*
G37*
G36*
X84222D02*
X82618D01*
X82000Y328184D01*
X81640Y327943D01*
X84222D01*
Y328307D01*
D02*
G37*
G36*
X162946Y328907D02*
X161728D01*
Y326907D01*
X162946D01*
Y328907D01*
D02*
G37*
G36*
X159228D02*
X158009D01*
Y326907D01*
X159228D01*
Y328907D01*
D02*
G37*
G36*
X89305Y325443D02*
X86722D01*
Y325079D01*
X88327D01*
X88944Y325202D01*
X89305Y325443D01*
D02*
G37*
G36*
X84222D02*
X81640D01*
X82000Y325202D01*
X82618Y325079D01*
X84222D01*
Y325443D01*
D02*
G37*
G36*
X162946Y324408D02*
X161728D01*
Y322408D01*
X162946D01*
Y324408D01*
D02*
G37*
G36*
X159228D02*
X158009D01*
Y322408D01*
X159228D01*
Y324408D01*
D02*
G37*
G36*
X163228Y321039D02*
X162403D01*
Y318246D01*
X163228D01*
Y321039D01*
D02*
G37*
G36*
Y315746D02*
X162403D01*
Y312953D01*
X163228D01*
Y315746D01*
D02*
G37*
G36*
X88327Y272027D02*
X86722D01*
Y271663D01*
X89305D01*
X88944Y271904D01*
X88327Y272027D01*
D02*
G37*
G36*
X84222D02*
X82618D01*
X82000Y271904D01*
X81640Y271663D01*
X84222D01*
Y272027D01*
D02*
G37*
G36*
X89305Y269163D02*
X86722D01*
Y268800D01*
X88327D01*
X88944Y268922D01*
X89305Y269163D01*
D02*
G37*
G36*
X84222D02*
X81640D01*
X82000Y268922D01*
X82618Y268800D01*
X84222D01*
Y269163D01*
D02*
G37*
G36*
X252042Y175906D02*
X250043D01*
Y174687D01*
X252042D01*
Y175906D01*
D02*
G37*
G36*
X247543D02*
X245542D01*
Y174687D01*
X247543D01*
Y175906D01*
D02*
G37*
G36*
X23728Y177272D02*
X20935D01*
Y171526D01*
X23728D01*
Y177272D01*
D02*
G37*
G36*
X18435D02*
X15642D01*
Y171526D01*
X18435D01*
Y177272D01*
D02*
G37*
G36*
X254629Y172187D02*
X252629D01*
Y170968D01*
X254629D01*
Y172187D01*
D02*
G37*
G36*
X252042Y172187D02*
X250043D01*
Y170968D01*
X252042D01*
Y172187D01*
D02*
G37*
G36*
X247543D02*
X245542D01*
Y170968D01*
X247543D01*
Y172187D01*
D02*
G37*
G36*
X23728Y169026D02*
X20935D01*
Y163279D01*
X23728D01*
Y169026D01*
D02*
G37*
G36*
X18435D02*
X15642D01*
Y163279D01*
X18435D01*
Y169026D01*
D02*
G37*
G36*
X25642Y162508D02*
X21892D01*
Y158730D01*
X25642D01*
Y162508D01*
D02*
G37*
G36*
X19392D02*
X15642D01*
Y158730D01*
X19392D01*
Y162508D01*
D02*
G37*
G36*
X25642Y156230D02*
X21892D01*
Y152453D01*
X25642D01*
Y156230D01*
D02*
G37*
G36*
X19392D02*
X15642D01*
Y152453D01*
X19392D01*
Y156230D01*
D02*
G37*
G36*
X212825Y123526D02*
X211607D01*
Y121526D01*
X212825D01*
Y123526D01*
D02*
G37*
G36*
X209107D02*
X207888D01*
Y121526D01*
X209107D01*
Y123526D01*
D02*
G37*
G36*
X212825Y119026D02*
X211607D01*
Y117026D01*
X212825D01*
Y119026D01*
D02*
G37*
G36*
X209107D02*
X207888D01*
Y117026D01*
X209107D01*
Y119026D01*
D02*
G37*
G36*
X212825Y116439D02*
X211607D01*
Y114439D01*
X212825D01*
Y116439D01*
D02*
G37*
G36*
X209107D02*
X207888D01*
Y114439D01*
X209107D01*
Y116439D01*
D02*
G37*
G36*
X212825Y111939D02*
X211607D01*
Y109939D01*
X212825D01*
Y111939D01*
D02*
G37*
G36*
X209107D02*
X207888D01*
Y109939D01*
X209107D01*
Y111939D01*
D02*
G37*
G36*
X198090Y104852D02*
X196871D01*
Y102852D01*
X198090D01*
Y104852D01*
D02*
G37*
G36*
X194371D02*
X193152D01*
Y102852D01*
X194371D01*
Y104852D01*
D02*
G37*
G36*
X187871Y100958D02*
Y98691D01*
X188335D01*
Y99803D01*
X188205Y100459D01*
X187871Y100958D01*
D02*
G37*
G36*
X185371D02*
X185038Y100459D01*
X184907Y99803D01*
Y98691D01*
X185371D01*
Y100958D01*
D02*
G37*
G36*
X23728Y101484D02*
X20935D01*
Y95738D01*
X23728D01*
Y101484D01*
D02*
G37*
G36*
X18435D02*
X15642D01*
Y95738D01*
X18435D01*
Y101484D01*
D02*
G37*
G36*
X23728Y93238D02*
X20935D01*
Y87492D01*
X23728D01*
Y93238D01*
D02*
G37*
G36*
X18435D02*
X15642D01*
Y87492D01*
X18435D01*
Y93238D01*
D02*
G37*
G36*
X23728Y86721D02*
X20935D01*
Y80974D01*
X23728D01*
Y86721D01*
D02*
G37*
G36*
X18435D02*
X15642D01*
Y80974D01*
X18435D01*
Y86721D01*
D02*
G37*
G36*
X23728Y78474D02*
X20935D01*
Y72728D01*
X23728D01*
Y78474D01*
D02*
G37*
G36*
X18435D02*
X15642D01*
Y72728D01*
X18435D01*
Y78474D01*
D02*
G37*
G36*
X23931Y70179D02*
X22713D01*
Y68179D01*
X23931D01*
Y70179D01*
D02*
G37*
G36*
X20213D02*
X18994D01*
Y68179D01*
X20213D01*
Y70179D01*
D02*
G37*
G36*
X23931Y65679D02*
X22713D01*
Y63679D01*
X23931D01*
Y65679D01*
D02*
G37*
G36*
X20213D02*
X18994D01*
Y63679D01*
X20213D01*
Y65679D01*
D02*
G37*
G36*
X201582Y33815D02*
X195582D01*
Y31565D01*
X201582D01*
Y33815D01*
D02*
G37*
G36*
X193082D02*
X187082D01*
Y31565D01*
X193082D01*
Y33815D01*
D02*
G37*
G36*
X85162Y31793D02*
X83944D01*
Y29793D01*
X85162D01*
Y31793D01*
D02*
G37*
G36*
X81444D02*
X80225D01*
Y29793D01*
X81444D01*
Y31793D01*
D02*
G37*
G36*
X201582Y29065D02*
X195582D01*
Y26815D01*
X201582D01*
Y29065D01*
D02*
G37*
G36*
X193082D02*
X187082D01*
Y26815D01*
X193082D01*
Y29065D01*
D02*
G37*
G36*
X85162Y27293D02*
X83944D01*
Y25293D01*
X85162D01*
Y27293D01*
D02*
G37*
G36*
X81444D02*
X80225D01*
Y25293D01*
X81444D01*
Y27293D01*
D02*
G37*
G36*
X20935Y33910D02*
Y20935D01*
X33910D01*
X33832Y21926D01*
X33308Y24111D01*
X32447Y26188D01*
X31273Y28104D01*
X29813Y29813D01*
X28104Y31273D01*
X26188Y32447D01*
X24111Y33308D01*
X21926Y33832D01*
X20935Y33910D01*
D02*
G37*
G36*
X18435D02*
X17444Y33832D01*
X15259Y33308D01*
X13182Y32447D01*
X11266Y31273D01*
X9557Y29813D01*
X8097Y28104D01*
X6922Y26188D01*
X6062Y24111D01*
X5538Y21926D01*
X5460Y20935D01*
X18435D01*
Y33910D01*
D02*
G37*
G36*
X81569Y23703D02*
Y19649D01*
X85623D01*
X85601Y19814D01*
X85055Y21133D01*
X84186Y22266D01*
X83053Y23135D01*
X81735Y23681D01*
X81569Y23703D01*
D02*
G37*
G36*
X79070D02*
X78904Y23681D01*
X77586Y23135D01*
X76453Y22266D01*
X75584Y21133D01*
X75038Y19814D01*
X75016Y19649D01*
X79070D01*
Y23703D01*
D02*
G37*
G36*
X85623Y17149D02*
X81569D01*
Y13096D01*
X81735Y13117D01*
X83053Y13664D01*
X84186Y14533D01*
X85055Y15665D01*
X85601Y16984D01*
X85623Y17149D01*
D02*
G37*
G36*
X79070D02*
X75016D01*
X75038Y16984D01*
X75584Y15665D01*
X76453Y14533D01*
X77586Y13664D01*
X78904Y13117D01*
X79070Y13096D01*
Y17149D01*
D02*
G37*
G36*
X33910Y18435D02*
X20935D01*
Y5460D01*
X21926Y5538D01*
X24111Y6062D01*
X26188Y6922D01*
X28104Y8097D01*
X29813Y9557D01*
X31273Y11266D01*
X32447Y13182D01*
X33308Y15259D01*
X33832Y17444D01*
X33910Y18435D01*
D02*
G37*
G36*
X18435D02*
X5460D01*
X5538Y17444D01*
X6062Y15259D01*
X6922Y13182D01*
X8097Y11266D01*
X9557Y9557D01*
X11266Y8097D01*
X13182Y6922D01*
X15259Y6062D01*
X17444Y5538D01*
X18435Y5460D01*
Y18435D01*
D02*
G37*
G36*
X208127Y343087D02*
X205531D01*
Y341868D01*
X208127D01*
Y343087D01*
D02*
G37*
G36*
X203031D02*
X200435D01*
Y341868D01*
X203031D01*
Y343087D01*
D02*
G37*
G36*
X208127Y339368D02*
X205531D01*
Y338150D01*
X208127D01*
Y339368D01*
D02*
G37*
G36*
X203031D02*
X200435D01*
Y338150D01*
X203031D01*
Y339368D01*
D02*
G37*
G36*
X261435Y327654D02*
X260216D01*
Y325057D01*
X261435D01*
Y327654D01*
D02*
G37*
G36*
X257716D02*
X256498D01*
Y325057D01*
X257716D01*
Y327654D01*
D02*
G37*
G36*
X261435Y322557D02*
X260216D01*
Y319961D01*
X261435D01*
Y322557D01*
D02*
G37*
G36*
X257716D02*
X256498D01*
Y319961D01*
X257716D01*
Y322557D01*
D02*
G37*
G36*
X136694Y328907D02*
X135476D01*
Y326907D01*
X136694D01*
Y328907D01*
D02*
G37*
G36*
Y324408D02*
X135476D01*
Y322408D01*
X136694D01*
Y324408D01*
D02*
G37*
G36*
X109587Y308307D02*
X107982D01*
Y307943D01*
X110564D01*
X110204Y308184D01*
X109587Y308307D01*
D02*
G37*
G36*
X110564Y305443D02*
X107982D01*
Y305079D01*
X109587D01*
X110204Y305202D01*
X110564Y305443D01*
D02*
G37*
G36*
X171553Y321039D02*
X170728D01*
Y318246D01*
X171553D01*
Y321039D01*
D02*
G37*
G36*
X168228D02*
X167403D01*
Y318246D01*
X168228D01*
Y321039D01*
D02*
G37*
G36*
X171553Y315746D02*
X170728D01*
Y312953D01*
X171553D01*
Y315746D01*
D02*
G37*
G36*
X168228D02*
X167403D01*
Y312953D01*
X168228D01*
Y315746D01*
D02*
G37*
G36*
X128358Y233354D02*
X126358D01*
Y232136D01*
X128358D01*
Y233354D01*
D02*
G37*
G36*
X123858D02*
X121858D01*
Y232136D01*
X123858D01*
Y233354D01*
D02*
G37*
G36*
X135444D02*
X133444D01*
Y232136D01*
X135444D01*
Y233354D01*
D02*
G37*
G36*
X130944D02*
X128944D01*
Y232136D01*
X130944D01*
Y233354D01*
D02*
G37*
G36*
X135444Y229636D02*
X133444D01*
Y228417D01*
X135444D01*
Y229636D01*
D02*
G37*
G36*
X130944D02*
X128944D01*
Y228417D01*
X130944D01*
Y229636D01*
D02*
G37*
G36*
X128358Y229636D02*
X126358D01*
Y228417D01*
X128358D01*
Y229636D01*
D02*
G37*
G36*
X123858D02*
X121858D01*
Y228417D01*
X123858D01*
Y229636D01*
D02*
G37*
G36*
X146080Y233354D02*
X142106D01*
Y227608D01*
X146080D01*
Y233354D01*
D02*
G37*
G36*
X163228Y228827D02*
X159254D01*
Y227608D01*
X163228D01*
Y228827D01*
D02*
G37*
G36*
X139606Y233354D02*
X135631D01*
Y227608D01*
X139606D01*
Y233354D01*
D02*
G37*
G36*
X163228Y225108D02*
X159254D01*
Y223890D01*
X163228D01*
Y225108D01*
D02*
G37*
G36*
X200490Y228827D02*
X197696D01*
Y223081D01*
X200490D01*
Y228827D01*
D02*
G37*
G36*
X195196D02*
X192403D01*
Y223081D01*
X195196D01*
Y228827D01*
D02*
G37*
G36*
X146080Y225108D02*
X142106D01*
Y219362D01*
X146080D01*
Y225108D01*
D02*
G37*
G36*
X139606D02*
X135631D01*
Y219362D01*
X139606D01*
Y225108D01*
D02*
G37*
G36*
X128358Y242354D02*
X126358D01*
Y241136D01*
X128358D01*
Y242354D01*
D02*
G37*
G36*
X135444D02*
X133444D01*
Y241136D01*
X135444D01*
Y242354D01*
D02*
G37*
G36*
X130944D02*
X128944D01*
Y241136D01*
X130944D01*
Y242354D01*
D02*
G37*
G36*
X135444Y238636D02*
X133444D01*
Y237417D01*
X135444D01*
Y238636D01*
D02*
G37*
G36*
X130944D02*
X128944D01*
Y237417D01*
X130944D01*
Y238636D01*
D02*
G37*
G36*
X128358Y238636D02*
X126358D01*
Y237417D01*
X128358D01*
Y238636D01*
D02*
G37*
G36*
X163228Y237882D02*
X159254D01*
Y236663D01*
X163228D01*
Y237882D01*
D02*
G37*
G36*
X169702Y234163D02*
X165728D01*
Y232945D01*
X169702D01*
Y234163D01*
D02*
G37*
G36*
X163228D02*
X159254D01*
Y232945D01*
X163228D01*
Y234163D01*
D02*
G37*
G36*
X166946Y211892D02*
X165728D01*
Y209892D01*
X166946D01*
Y211892D01*
D02*
G37*
G36*
X163228D02*
X162009D01*
Y209892D01*
X163228D01*
Y211892D01*
D02*
G37*
G36*
X166946Y207392D02*
X165728D01*
Y205392D01*
X166946D01*
Y207392D01*
D02*
G37*
G36*
X163228D02*
X162009D01*
Y205392D01*
X163228D01*
Y207392D01*
D02*
G37*
G36*
X166946Y204530D02*
X165728D01*
Y202530D01*
X166946D01*
Y204530D01*
D02*
G37*
G36*
X163228D02*
X162009D01*
Y202530D01*
X163228D01*
Y204530D01*
D02*
G37*
G36*
X166946Y200029D02*
X165728D01*
Y198029D01*
X166946D01*
Y200029D01*
D02*
G37*
G36*
X163228D02*
X162009D01*
Y198029D01*
X163228D01*
Y200029D01*
D02*
G37*
G36*
X164265Y182517D02*
X163047D01*
Y180517D01*
X164265D01*
Y182517D01*
D02*
G37*
G36*
Y178017D02*
X163047D01*
Y176017D01*
X164265D01*
Y178017D01*
D02*
G37*
G36*
X132842Y138098D02*
X131722D01*
Y137077D01*
X132842D01*
Y138098D01*
D02*
G37*
G36*
X129222D02*
X128102D01*
Y137077D01*
X129222D01*
Y138098D01*
D02*
G37*
G36*
X119866Y139077D02*
X118648D01*
Y137077D01*
X119866D01*
Y139077D01*
D02*
G37*
G36*
X261435Y302850D02*
X260216D01*
Y300254D01*
X261435D01*
Y302850D01*
D02*
G37*
G36*
X257716D02*
X256498D01*
Y300254D01*
X257716D01*
Y302850D01*
D02*
G37*
G36*
X261435Y297754D02*
X260216D01*
Y295158D01*
X261435D01*
Y297754D01*
D02*
G37*
G36*
X257716D02*
X256498D01*
Y295158D01*
X257716D01*
Y297754D01*
D02*
G37*
G36*
X346867Y229987D02*
Y227425D01*
X349428D01*
X349111Y228192D01*
X348469Y229028D01*
X347634Y229669D01*
X346867Y229987D01*
D02*
G37*
G36*
X344367Y229987D02*
X343599Y229669D01*
X342764Y229028D01*
X342123Y228192D01*
X341805Y227425D01*
X344367D01*
Y229987D01*
D02*
G37*
G36*
Y224925D02*
X341805D01*
X342123Y224158D01*
X342764Y223322D01*
X343599Y222681D01*
X344367Y222363D01*
Y224925D01*
D02*
G37*
G36*
X349428D02*
X346867D01*
Y222363D01*
X347634Y222681D01*
X348469Y223322D01*
X349111Y224158D01*
X349428Y224925D01*
D02*
G37*
G36*
X169702Y219772D02*
X165728D01*
Y218553D01*
X169702D01*
Y219772D01*
D02*
G37*
G36*
X163228D02*
X159254D01*
Y218553D01*
X163228D01*
Y219772D01*
D02*
G37*
G36*
X169702Y216053D02*
X165728D01*
Y214835D01*
X169702D01*
Y216053D01*
D02*
G37*
G36*
X163228D02*
X159254D01*
Y214835D01*
X163228D01*
Y216053D01*
D02*
G37*
G36*
X185647Y212685D02*
X179901D01*
Y209892D01*
X185647D01*
Y212685D01*
D02*
G37*
G36*
X177401D02*
X171655D01*
Y209892D01*
X177401D01*
Y212685D01*
D02*
G37*
G36*
X185647Y207392D02*
X179901D01*
Y204598D01*
X185647D01*
Y207392D01*
D02*
G37*
G36*
X177401D02*
X171655D01*
Y204598D01*
X177401D01*
Y207392D01*
D02*
G37*
G36*
X151547Y182517D02*
X150328D01*
Y180517D01*
X151547D01*
Y182517D01*
D02*
G37*
G36*
X132940Y181230D02*
X131722D01*
Y179230D01*
X132940D01*
Y181230D01*
D02*
G37*
G36*
X129222D02*
X128003D01*
Y179230D01*
X129222D01*
Y181230D01*
D02*
G37*
G36*
X129222Y178644D02*
X128003D01*
Y176644D01*
X129222D01*
Y178644D01*
D02*
G37*
G36*
X151547Y178017D02*
X150328D01*
Y176017D01*
X151547D01*
Y178017D01*
D02*
G37*
G36*
X124647Y170250D02*
Y167982D01*
X125111D01*
Y169095D01*
X124981Y169750D01*
X124647Y170250D01*
D02*
G37*
G36*
X122148Y170250D02*
X121814Y169750D01*
X121684Y169095D01*
Y167982D01*
X122148D01*
Y170250D01*
D02*
G37*
G36*
Y165482D02*
X121684D01*
Y164370D01*
X121814Y163714D01*
X122148Y163215D01*
Y165482D01*
D02*
G37*
G36*
X125111D02*
X124647D01*
Y163215D01*
X124981Y163714D01*
X125111Y164370D01*
Y165482D01*
D02*
G37*
G36*
X132744Y161899D02*
X131722D01*
Y160286D01*
X132744D01*
Y161899D01*
D02*
G37*
G36*
X129222D02*
X128200D01*
Y160286D01*
X129222D01*
Y161899D01*
D02*
G37*
G36*
X132744Y157787D02*
X131722D01*
Y156174D01*
X132744D01*
Y157787D01*
D02*
G37*
G36*
X129222D02*
X128200D01*
Y156174D01*
X129222D01*
Y157787D01*
D02*
G37*
G36*
X47350Y177272D02*
X44557D01*
Y171526D01*
X47350D01*
Y177272D01*
D02*
G37*
G36*
X42057D02*
X39264D01*
Y171526D01*
X42057D01*
Y177272D01*
D02*
G37*
G36*
X60305Y160751D02*
Y158730D01*
X62326D01*
X62112Y159245D01*
X61551Y159976D01*
X60820Y160538D01*
X60305Y160751D01*
D02*
G37*
G36*
X57805D02*
X57290Y160538D01*
X56559Y159976D01*
X55998Y159245D01*
X55784Y158730D01*
X57805D01*
Y160751D01*
D02*
G37*
G36*
X62326Y156230D02*
X60305D01*
Y154210D01*
X60820Y154423D01*
X61551Y154984D01*
X62112Y155715D01*
X62326Y156230D01*
D02*
G37*
G36*
X57805D02*
X55784D01*
X55998Y155715D01*
X56559Y154984D01*
X57290Y154423D01*
X57805Y154210D01*
Y156230D01*
D02*
G37*
G36*
X79990Y160751D02*
Y158730D01*
X82011D01*
X81797Y159245D01*
X81236Y159976D01*
X80505Y160538D01*
X79990Y160751D01*
D02*
G37*
G36*
X77490Y160751D02*
X76975Y160538D01*
X76244Y159976D01*
X75683Y159245D01*
X75469Y158730D01*
X77490D01*
Y160751D01*
D02*
G37*
G36*
X82011Y156230D02*
X79990D01*
Y154210D01*
X80505Y154423D01*
X81236Y154984D01*
X81797Y155715D01*
X82011Y156230D01*
D02*
G37*
G36*
X77490D02*
X75469D01*
X75683Y155715D01*
X76244Y154984D01*
X76975Y154423D01*
X77490Y154210D01*
Y156230D01*
D02*
G37*
G36*
X85299Y148429D02*
X83687D01*
Y147407D01*
X85299D01*
Y148429D01*
D02*
G37*
G36*
X81187D02*
X79575D01*
Y147407D01*
X81187D01*
Y148429D01*
D02*
G37*
G36*
X85299Y144907D02*
X83687D01*
Y143886D01*
X85299D01*
Y144907D01*
D02*
G37*
G36*
X81187D02*
X79575D01*
Y143886D01*
X81187D01*
Y144907D01*
D02*
G37*
G36*
X98583Y123689D02*
X97561D01*
Y117392D01*
X98583D01*
Y123689D01*
D02*
G37*
G36*
X95061D02*
X94039D01*
Y117392D01*
X95061D01*
Y123689D01*
D02*
G37*
G36*
X85299Y136429D02*
X83687D01*
Y135407D01*
X85299D01*
Y136429D01*
D02*
G37*
G36*
X81187D02*
X79575D01*
Y135407D01*
X81187D01*
Y136429D01*
D02*
G37*
G36*
X85299Y132907D02*
X83687D01*
Y131886D01*
X85299D01*
Y132907D01*
D02*
G37*
G36*
X81187D02*
X79575D01*
Y131886D01*
X81187D01*
Y132907D01*
D02*
G37*
G36*
X68504Y128089D02*
X63258D01*
Y117392D01*
X74743D01*
Y121850D01*
X74623Y123067D01*
X74268Y124238D01*
X73691Y125316D01*
X72915Y126262D01*
X71970Y127038D01*
X70891Y127614D01*
X69721Y127969D01*
X68504Y128089D01*
D02*
G37*
G36*
X60758D02*
X55512D01*
X54295Y127969D01*
X53124Y127614D01*
X52046Y127038D01*
X51100Y126262D01*
X50324Y125316D01*
X49748Y124238D01*
X49393Y123067D01*
X49273Y121850D01*
Y117392D01*
X60758D01*
Y128089D01*
D02*
G37*
G36*
X74743Y114892D02*
X63258D01*
Y104194D01*
X68504D01*
X69721Y104314D01*
X70891Y104669D01*
X71970Y105246D01*
X72915Y106022D01*
X73691Y106967D01*
X74268Y108046D01*
X74623Y109216D01*
X74743Y110433D01*
Y114892D01*
D02*
G37*
G36*
X60758D02*
X49273D01*
Y110433D01*
X49393Y109216D01*
X49748Y108046D01*
X50324Y106967D01*
X51100Y106022D01*
X52046Y105246D01*
X53124Y104669D01*
X54295Y104314D01*
X55512Y104194D01*
X60758D01*
Y114892D01*
D02*
G37*
G36*
X75008Y93992D02*
X73789D01*
Y91992D01*
X75008D01*
Y93992D01*
D02*
G37*
G36*
X71289D02*
X70071D01*
Y91992D01*
X71289D01*
Y93992D01*
D02*
G37*
G36*
X75008Y89492D02*
X73789D01*
Y87492D01*
X75008D01*
Y89492D01*
D02*
G37*
G36*
X71289D02*
X70071D01*
Y87492D01*
X71289D01*
Y89492D01*
D02*
G37*
G36*
X75008Y86974D02*
X72758D01*
Y80974D01*
X75008D01*
Y86974D01*
D02*
G37*
G36*
X70258D02*
X68008D01*
Y80974D01*
X70258D01*
Y86974D01*
D02*
G37*
G36*
X75008Y78474D02*
X72758D01*
Y72474D01*
X75008D01*
Y78474D01*
D02*
G37*
G36*
X70258D02*
X68008D01*
Y72474D01*
X70258D01*
Y78474D01*
D02*
G37*
G36*
X159753Y23821D02*
X155582D01*
Y19649D01*
X159753D01*
Y23821D01*
D02*
G37*
G36*
X153082D02*
X148910D01*
Y19649D01*
X153082D01*
Y23821D01*
D02*
G37*
G36*
X112747D02*
X108576D01*
Y19649D01*
X112747D01*
Y23821D01*
D02*
G37*
G36*
X106076D02*
X101904D01*
Y19649D01*
X106076D01*
Y23821D01*
D02*
G37*
G36*
X159753Y17149D02*
X155582D01*
Y12978D01*
X159753D01*
Y17149D01*
D02*
G37*
G36*
X153082D02*
X148910D01*
Y12978D01*
X153082D01*
Y17149D01*
D02*
G37*
G36*
X112747D02*
X108576D01*
Y12978D01*
X112747D01*
Y17149D01*
D02*
G37*
G36*
X106076D02*
X101904D01*
Y12978D01*
X106076D01*
Y17149D01*
D02*
G37*
G36*
X344158Y114794D02*
Y111250D01*
X346390D01*
Y111575D01*
X346272Y112476D01*
X345924Y113316D01*
X345370Y114037D01*
X344649Y114591D01*
X344158Y114794D01*
D02*
G37*
G36*
X341658D02*
X341166Y114591D01*
X340445Y114037D01*
X339892Y113316D01*
X339544Y112476D01*
X339425Y111575D01*
Y111250D01*
X341658D01*
Y114794D01*
D02*
G37*
G36*
X328209Y96593D02*
X322963D01*
Y85896D01*
X334448D01*
Y90354D01*
X334328Y91571D01*
X333973Y92742D01*
X333396Y93820D01*
X332620Y94766D01*
X331675Y95542D01*
X330596Y96118D01*
X329426Y96473D01*
X328209Y96593D01*
D02*
G37*
G36*
X320463D02*
X315217D01*
X314000Y96473D01*
X312829Y96118D01*
X311751Y95542D01*
X310805Y94766D01*
X310030Y93820D01*
X309453Y92742D01*
X309098Y91571D01*
X308978Y90354D01*
Y85896D01*
X320463D01*
Y96593D01*
D02*
G37*
G36*
X334448Y83396D02*
X322963D01*
Y72698D01*
X328209D01*
X329426Y72818D01*
X330596Y73173D01*
X331675Y73750D01*
X332620Y74526D01*
X333396Y75471D01*
X333973Y76550D01*
X334328Y77720D01*
X334448Y78937D01*
Y83396D01*
D02*
G37*
G36*
X320463D02*
X308978D01*
Y78937D01*
X309098Y77720D01*
X309453Y76550D01*
X310030Y75471D01*
X310805Y74526D01*
X311751Y73750D01*
X312829Y73173D01*
X314000Y72818D01*
X315217Y72698D01*
X320463D01*
Y83396D01*
D02*
G37*
G36*
X342353Y54923D02*
X339560D01*
Y49177D01*
X342353D01*
Y54923D01*
D02*
G37*
G36*
X337060D02*
X334267D01*
Y49177D01*
X337060D01*
Y54923D01*
D02*
G37*
G36*
Y46677D02*
X334267D01*
Y40931D01*
X337060D01*
Y46677D01*
D02*
G37*
G36*
X300771Y23821D02*
X296600D01*
Y19649D01*
X300771D01*
Y23821D01*
D02*
G37*
G36*
X294100D02*
X289929D01*
Y19649D01*
X294100D01*
Y23821D01*
D02*
G37*
G36*
X300771Y17149D02*
X296600D01*
Y12978D01*
X300771D01*
Y17149D01*
D02*
G37*
G36*
X294100D02*
X289929D01*
Y12978D01*
X294100D01*
Y17149D01*
D02*
G37*
G36*
X277956Y113810D02*
Y110266D01*
X280188D01*
Y110591D01*
X280070Y111492D01*
X279722Y112332D01*
X279168Y113053D01*
X278447Y113607D01*
X277956Y113810D01*
D02*
G37*
G36*
X275456Y113810D02*
X274964Y113607D01*
X274243Y113053D01*
X273690Y112332D01*
X273342Y111492D01*
X273223Y110591D01*
Y110266D01*
X275456D01*
Y113810D01*
D02*
G37*
G36*
X262007Y96593D02*
X256761D01*
Y85896D01*
X268246D01*
Y90354D01*
X268126Y91571D01*
X267771Y92742D01*
X267194Y93820D01*
X266418Y94766D01*
X265473Y95542D01*
X264394Y96118D01*
X263224Y96473D01*
X262007Y96593D01*
D02*
G37*
G36*
X254261D02*
X249015D01*
X247798Y96473D01*
X246627Y96118D01*
X245549Y95542D01*
X244603Y94766D01*
X243828Y93820D01*
X243251Y92742D01*
X242896Y91571D01*
X242776Y90354D01*
Y85896D01*
X254261D01*
Y96593D01*
D02*
G37*
G36*
X268246Y83396D02*
X256761D01*
Y72698D01*
X262007D01*
X263224Y72818D01*
X264394Y73173D01*
X265473Y73750D01*
X266418Y74526D01*
X267194Y75471D01*
X267771Y76550D01*
X268126Y77720D01*
X268246Y78937D01*
Y83396D01*
D02*
G37*
G36*
X254261D02*
X242776D01*
Y78937D01*
X242896Y77720D01*
X243251Y76550D01*
X243828Y75471D01*
X244603Y74526D01*
X245549Y73750D01*
X246627Y73173D01*
X247798Y72818D01*
X249015Y72698D01*
X254261D01*
Y83396D01*
D02*
G37*
G36*
X276151Y54923D02*
X273358D01*
Y49177D01*
X276151D01*
Y54923D01*
D02*
G37*
G36*
X270858D02*
X268065D01*
Y49177D01*
X270858D01*
Y54923D01*
D02*
G37*
G36*
X276151Y46677D02*
X273358D01*
Y40931D01*
X276151D01*
Y46677D01*
D02*
G37*
G36*
X270858D02*
X268065D01*
Y40931D01*
X270858D01*
Y46677D01*
D02*
G37*
G36*
X253765Y23821D02*
X249594D01*
Y19649D01*
X253765D01*
Y23821D01*
D02*
G37*
G36*
X247094D02*
X242923D01*
Y19649D01*
X247094D01*
Y23821D01*
D02*
G37*
G36*
X253765Y17149D02*
X249594D01*
Y12978D01*
X253765D01*
Y17149D01*
D02*
G37*
G36*
X247094D02*
X242923D01*
Y12978D01*
X247094D01*
Y17149D01*
D02*
G37*
G36*
X47350Y101484D02*
X44557D01*
Y95738D01*
X47350D01*
Y101484D01*
D02*
G37*
G36*
X42057D02*
X39264D01*
Y95738D01*
X42057D01*
Y101484D01*
D02*
G37*
G36*
X47350Y93238D02*
X44557D01*
Y87492D01*
X47350D01*
Y93238D01*
D02*
G37*
G36*
X42057D02*
X39264D01*
Y87492D01*
X42057D01*
Y93238D01*
D02*
G37*
G36*
X47350Y86721D02*
X44557D01*
Y80974D01*
X47350D01*
Y86721D01*
D02*
G37*
G36*
X56008Y86974D02*
X53758D01*
Y80974D01*
X56008D01*
Y86974D01*
D02*
G37*
G36*
X51258D02*
X49008D01*
Y80974D01*
X51258D01*
Y86974D01*
D02*
G37*
G36*
X42057Y86721D02*
X39264D01*
Y80974D01*
X42057D01*
Y86721D01*
D02*
G37*
G36*
X47350Y78474D02*
X44557D01*
Y72728D01*
X47350D01*
Y78474D01*
D02*
G37*
G36*
X42057D02*
X39264D01*
Y72728D01*
X42057D01*
Y78474D01*
D02*
G37*
G36*
X56008D02*
X53758D01*
Y72474D01*
X56008D01*
Y78474D01*
D02*
G37*
G36*
X51258D02*
X49008D01*
Y72474D01*
X51258D01*
Y78474D01*
D02*
G37*
G36*
X44557Y70200D02*
Y68179D01*
X46578D01*
X46364Y68694D01*
X45803Y69425D01*
X45072Y69986D01*
X44557Y70200D01*
D02*
G37*
G36*
X32931Y70179D02*
X31713D01*
Y68179D01*
X32931D01*
Y70179D01*
D02*
G37*
G36*
X29213D02*
X27994D01*
Y68179D01*
X29213D01*
Y70179D01*
D02*
G37*
G36*
X42057Y70200D02*
X41542Y69986D01*
X40811Y69425D01*
X40250Y68694D01*
X40036Y68179D01*
X42057D01*
Y70200D01*
D02*
G37*
G36*
X32931Y65679D02*
X31713D01*
Y63679D01*
X32931D01*
Y65679D01*
D02*
G37*
G36*
X29213D02*
X27994D01*
Y63679D01*
X29213D01*
Y65679D01*
D02*
G37*
G36*
X46578D02*
X44557D01*
Y63658D01*
X45072Y63872D01*
X45803Y64433D01*
X46364Y65164D01*
X46578Y65679D01*
D02*
G37*
G36*
X42057D02*
X40036D01*
X40250Y65164D01*
X40811Y64433D01*
X41542Y63872D01*
X42057Y63658D01*
Y65679D01*
D02*
G37*
G36*
X354544Y97336D02*
X351463D01*
Y94896D01*
X356659D01*
Y95221D01*
X356498Y96030D01*
X356040Y96716D01*
X355353Y97175D01*
X354544Y97336D01*
D02*
G37*
G36*
X348963D02*
X345882D01*
X345073Y97175D01*
X344386Y96716D01*
X343928Y96030D01*
X343767Y95221D01*
Y94896D01*
X348963D01*
Y97336D01*
D02*
G37*
G36*
X356659Y92396D02*
X351463D01*
Y89955D01*
X354544D01*
X355353Y90116D01*
X356040Y90575D01*
X356498Y91261D01*
X356659Y92071D01*
Y92396D01*
D02*
G37*
G36*
X348963D02*
X343767D01*
Y92071D01*
X343928Y91261D01*
X344386Y90575D01*
X345073Y90116D01*
X345882Y89955D01*
X348963D01*
Y92396D01*
D02*
G37*
G36*
X353763Y66975D02*
Y63941D01*
X356798D01*
X356389Y64928D01*
X355678Y65855D01*
X354751Y66566D01*
X353763Y66975D01*
D02*
G37*
G36*
X356798Y61440D02*
X353763D01*
Y58406D01*
X354751Y58815D01*
X355678Y59526D01*
X356389Y60453D01*
X356798Y61440D01*
D02*
G37*
G36*
X316600Y23703D02*
Y19649D01*
X320653D01*
X320632Y19814D01*
X320085Y21133D01*
X319216Y22266D01*
X318084Y23135D01*
X316765Y23681D01*
X316600Y23703D01*
D02*
G37*
G36*
X314100D02*
X313935Y23681D01*
X312616Y23135D01*
X311483Y22266D01*
X310614Y21133D01*
X310068Y19814D01*
X310047Y19649D01*
X314100D01*
Y23703D01*
D02*
G37*
G36*
X320653Y17149D02*
X316600D01*
Y13096D01*
X316765Y13117D01*
X318084Y13664D01*
X319216Y14533D01*
X320085Y15665D01*
X320632Y16984D01*
X320653Y17149D01*
D02*
G37*
G36*
X314100D02*
X310047D01*
X310068Y16984D01*
X310614Y15665D01*
X311483Y14533D01*
X312616Y13664D01*
X313935Y13117D01*
X314100Y13096D01*
Y17149D01*
D02*
G37*
G36*
X288342Y97336D02*
X285261D01*
Y94896D01*
X290457D01*
Y95221D01*
X290296Y96030D01*
X289838Y96716D01*
X289151Y97175D01*
X288342Y97336D01*
D02*
G37*
G36*
X282761D02*
X279680D01*
X278871Y97175D01*
X278184Y96716D01*
X277726Y96030D01*
X277565Y95221D01*
Y94896D01*
X282761D01*
Y97336D01*
D02*
G37*
G36*
X290457Y92396D02*
X285261D01*
Y89955D01*
X288342D01*
X289151Y90116D01*
X289838Y90575D01*
X290296Y91261D01*
X290457Y92071D01*
Y92396D01*
D02*
G37*
G36*
X282761D02*
X277565D01*
Y92071D01*
X277726Y91261D01*
X278184Y90575D01*
X278871Y90116D01*
X279680Y89955D01*
X282761D01*
Y92396D01*
D02*
G37*
G36*
X287561Y66975D02*
Y63941D01*
X290596D01*
X290187Y64928D01*
X289476Y65855D01*
X288549Y66566D01*
X287561Y66975D01*
D02*
G37*
G36*
X290596Y61440D02*
X287561D01*
Y58406D01*
X288549Y58815D01*
X289476Y59526D01*
X290187Y60453D01*
X290596Y61440D01*
D02*
G37*
G36*
X269594Y23703D02*
Y19649D01*
X273647D01*
X273626Y19814D01*
X273079Y21133D01*
X272210Y22266D01*
X271078Y23135D01*
X269759Y23681D01*
X269594Y23703D01*
D02*
G37*
G36*
X267094D02*
X266929Y23681D01*
X265610Y23135D01*
X264477Y22266D01*
X263608Y21133D01*
X263062Y19814D01*
X263040Y19649D01*
X267094D01*
Y23703D01*
D02*
G37*
G36*
X273647Y17149D02*
X269594D01*
Y13096D01*
X269759Y13117D01*
X271078Y13664D01*
X272210Y14533D01*
X273079Y15665D01*
X273626Y16984D01*
X273647Y17149D01*
D02*
G37*
G36*
X267094D02*
X263040D01*
X263062Y16984D01*
X263608Y15665D01*
X264477Y14533D01*
X265610Y13664D01*
X266929Y13117D01*
X267094Y13096D01*
Y17149D01*
D02*
G37*
G36*
X84008Y93992D02*
X82789D01*
Y91992D01*
X84008D01*
Y93992D01*
D02*
G37*
G36*
X80289D02*
X79071D01*
Y91992D01*
X80289D01*
Y93992D01*
D02*
G37*
G36*
X84008Y89492D02*
X82789D01*
Y87492D01*
X84008D01*
Y89492D01*
D02*
G37*
G36*
X80289D02*
X79071D01*
Y87492D01*
X80289D01*
Y89492D01*
D02*
G37*
G36*
X120236Y81742D02*
X104254D01*
Y69392D01*
X120236D01*
Y81742D01*
D02*
G37*
G36*
X101754D02*
X85772D01*
Y69392D01*
X101754D01*
Y81742D01*
D02*
G37*
G36*
X158735Y68807D02*
X157123D01*
Y67786D01*
X158735D01*
Y68807D01*
D02*
G37*
G36*
X154623D02*
X153011D01*
Y67786D01*
X154623D01*
Y68807D01*
D02*
G37*
G36*
X198090Y69785D02*
X196871D01*
Y67786D01*
X198090D01*
Y69785D01*
D02*
G37*
G36*
X194371D02*
X193152D01*
Y67786D01*
X194371D01*
Y69785D01*
D02*
G37*
G36*
X167784Y69004D02*
X165784D01*
Y67785D01*
X167784D01*
Y69004D01*
D02*
G37*
G36*
X163284D02*
X161284D01*
Y67785D01*
X163284D01*
Y69004D01*
D02*
G37*
G36*
X158735Y65285D02*
X157123D01*
Y64264D01*
X158735D01*
Y65285D01*
D02*
G37*
G36*
X154623D02*
X153011D01*
Y64264D01*
X154623D01*
Y65285D01*
D02*
G37*
G36*
X167784Y65285D02*
X165784D01*
Y64067D01*
X167784D01*
Y65285D01*
D02*
G37*
G36*
X163284D02*
X161284D01*
Y64067D01*
X163284D01*
Y65285D01*
D02*
G37*
G36*
X198090Y65285D02*
X196871D01*
Y63285D01*
X198090D01*
Y65285D01*
D02*
G37*
G36*
X194371D02*
X193152D01*
Y63285D01*
X194371D01*
Y65285D01*
D02*
G37*
G36*
X181328Y59555D02*
X175582D01*
Y56762D01*
X181328D01*
Y59555D01*
D02*
G37*
G36*
X161328D02*
X155582D01*
Y56762D01*
X161328D01*
Y59555D01*
D02*
G37*
G36*
X173082D02*
X167336D01*
Y56762D01*
X173082D01*
Y59555D01*
D02*
G37*
G36*
X153082D02*
X147336D01*
Y56762D01*
X153082D01*
Y59555D01*
D02*
G37*
G36*
X146221Y54972D02*
X144220D01*
Y53754D01*
X146221D01*
Y54972D01*
D02*
G37*
G36*
X181328Y54262D02*
X175582D01*
Y51468D01*
X181328D01*
Y54262D01*
D02*
G37*
G36*
X173082D02*
X167336D01*
Y51468D01*
X173082D01*
Y54262D01*
D02*
G37*
G36*
X161328D02*
X155582D01*
Y51468D01*
X161328D01*
Y54262D01*
D02*
G37*
G36*
X153082D02*
X147336D01*
Y51468D01*
X153082D01*
Y54262D01*
D02*
G37*
G36*
X193082Y52815D02*
X187082D01*
Y50565D01*
X193082D01*
Y52815D01*
D02*
G37*
G36*
X181328Y34358D02*
X175582D01*
Y31565D01*
X181328D01*
Y34358D01*
D02*
G37*
G36*
X173082D02*
X167336D01*
Y31565D01*
X173082D01*
Y34358D01*
D02*
G37*
G36*
X181328Y29065D02*
X175582D01*
Y26272D01*
X181328D01*
Y29065D01*
D02*
G37*
G36*
X173082D02*
X167336D01*
Y26272D01*
X173082D01*
Y29065D01*
D02*
G37*
G36*
X175582Y23703D02*
Y19649D01*
X179635D01*
X179613Y19814D01*
X179067Y21133D01*
X178198Y22266D01*
X177066Y23135D01*
X175747Y23681D01*
X175582Y23703D01*
D02*
G37*
G36*
X173082D02*
X172916Y23681D01*
X171598Y23135D01*
X170465Y22266D01*
X169596Y21133D01*
X169050Y19814D01*
X169028Y19649D01*
X173082D01*
Y23703D01*
D02*
G37*
G36*
X179635Y17149D02*
X175582D01*
Y13096D01*
X175747Y13117D01*
X177066Y13664D01*
X178198Y14533D01*
X179067Y15665D01*
X179613Y16984D01*
X179635Y17149D01*
D02*
G37*
G36*
X173082D02*
X169028D01*
X169050Y16984D01*
X169596Y15665D01*
X170465Y14533D01*
X171598Y13664D01*
X172916Y13117D01*
X173082Y13096D01*
Y17149D01*
D02*
G37*
G36*
X129696Y34555D02*
X128576D01*
Y33533D01*
X129696D01*
Y34555D01*
D02*
G37*
G36*
X126076D02*
X124955D01*
Y33533D01*
X126076D01*
Y34555D01*
D02*
G37*
G36*
X129696Y31034D02*
X128576D01*
Y30012D01*
X129696D01*
Y31034D01*
D02*
G37*
G36*
X126076D02*
X124955D01*
Y30012D01*
X126076D01*
Y31034D01*
D02*
G37*
G36*
X128576Y23703D02*
Y19649D01*
X132629D01*
X132607Y19814D01*
X132061Y21133D01*
X131192Y22266D01*
X130060Y23135D01*
X128741Y23681D01*
X128576Y23703D01*
D02*
G37*
G36*
X126076D02*
X125910Y23681D01*
X124592Y23135D01*
X123459Y22266D01*
X122590Y21133D01*
X122044Y19814D01*
X122022Y19649D01*
X126076D01*
Y23703D01*
D02*
G37*
G36*
X132629Y17149D02*
X128576D01*
Y13096D01*
X128741Y13117D01*
X130060Y13664D01*
X131192Y14533D01*
X132061Y15665D01*
X132607Y16984D01*
X132629Y17149D01*
D02*
G37*
G36*
X126076D02*
X122022D01*
X122044Y16984D01*
X122590Y15665D01*
X123459Y14533D01*
X124592Y13664D01*
X125910Y13117D01*
X126076Y13096D01*
Y17149D01*
D02*
G37*
G36*
X44557Y50515D02*
Y48494D01*
X46578D01*
X46364Y49009D01*
X45803Y49740D01*
X45072Y50301D01*
X44557Y50515D01*
D02*
G37*
G36*
X42057D02*
X41542Y50301D01*
X40811Y49740D01*
X40250Y49009D01*
X40036Y48494D01*
X42057D01*
Y50515D01*
D02*
G37*
G36*
X46578Y45994D02*
X44557D01*
Y43973D01*
X45072Y44187D01*
X45803Y44748D01*
X46364Y45479D01*
X46578Y45994D01*
D02*
G37*
G36*
X42057D02*
X40036D01*
X40250Y45479D01*
X40811Y44748D01*
X41542Y44187D01*
X42057Y43973D01*
Y45994D01*
D02*
G37*
G36*
X60414Y31793D02*
X59196D01*
Y29793D01*
X60414D01*
Y31793D01*
D02*
G37*
G36*
X56696D02*
X55477D01*
Y29793D01*
X56696D01*
Y31793D01*
D02*
G37*
G36*
X60414Y27293D02*
X59196D01*
Y25293D01*
X60414D01*
Y27293D01*
D02*
G37*
G36*
X56696D02*
X55477D01*
Y25293D01*
X56696D01*
Y27293D01*
D02*
G37*
G36*
X65741Y23821D02*
X61569D01*
Y19649D01*
X65741D01*
Y23821D01*
D02*
G37*
G36*
X59070D02*
X54898D01*
Y19649D01*
X59070D01*
Y23821D01*
D02*
G37*
G36*
X65741Y17149D02*
X61569D01*
Y12978D01*
X65741D01*
Y17149D01*
D02*
G37*
G36*
X59070D02*
X54898D01*
Y12978D01*
X59070D01*
Y17149D01*
D02*
G37*
%LPD*%
D10*
X340780Y269693D02*
G03*
X333880Y262793I0J-6900D01*
G01*
X364880Y259750D02*
G03*
X354937Y269693I-9943J0D01*
G01*
X300829Y299878D02*
G03*
X290829Y309878I-10000J0D01*
G01*
X360351Y226175D02*
G03*
X364880Y230704I0J4529D01*
G01*
X325880Y254793D02*
G03*
X333880Y262793I0J8000D01*
G01*
X300780Y264793D02*
G03*
X310780Y254793I10000J0D01*
G01*
X229080Y309878D02*
G03*
X219080Y299878I0J-10000D01*
G01*
X207822Y262593D02*
G03*
X219080Y273851I0J11258D01*
G01*
X204478Y262593D02*
G03*
X194478Y252593I0J-10000D01*
G01*
X192580Y240593D02*
G03*
X194478Y242491I0J1898D01*
G01*
X184478Y242689D02*
G03*
X186574Y240593I2096J0D01*
G01*
X204727Y186358D02*
G03*
X207656Y193430I-7071J7071D01*
G01*
Y232462D02*
G03*
X206356Y235600I-4439J0D01*
G01*
X204478Y240134D02*
G03*
X206356Y235600I6412J0D01*
G01*
X232253Y299004D02*
G03*
X227980Y294731I0J-4273D01*
G01*
X214530Y257593D02*
G03*
X227980Y271043I0J13450D01*
G01*
X210865Y257593D02*
G03*
X204478Y251206I0J-6387D01*
G01*
X233241Y255093D02*
G03*
X235344Y257196I0J2103D01*
G01*
X218353Y255093D02*
G03*
X214478Y251218I0J-3875D01*
G01*
X212600Y235600D02*
G03*
X214478Y240134I-4534J4534D01*
G01*
X212600Y235600D02*
G03*
X211300Y232462I3139J-3139D01*
G01*
X208371Y186180D02*
G03*
X211300Y193251I-7071J7071D01*
G01*
X214048Y188056D02*
G03*
X215800Y192290I-4237J4233D01*
G01*
X214046Y188054D02*
G03*
X214048Y188056I-4235J4235D01*
G01*
X217936Y234036D02*
G03*
X215800Y228879I5157J-5157D01*
G01*
X222090Y238190D02*
G03*
X224478Y243955I-5765J5765D01*
G01*
X304590Y307310D02*
G03*
X311661Y304381I7071J7071D01*
G01*
X302451Y309449D02*
G03*
X295380Y312378I-7071J-7071D01*
G01*
X236100Y318500D02*
G03*
X241321Y312378I6200J0D01*
G01*
X343419Y308881D02*
G03*
X345774Y311236I0J2355D01*
G01*
X341034Y308881D02*
G03*
X338687Y306535I0J-2347D01*
G01*
X236100Y325300D02*
G03*
X233400Y328000I-2700J0D01*
G01*
X227800D02*
G03*
X224478Y324678I0J-3322D01*
G01*
X352542Y322175D02*
G03*
X355616Y325250I0J3075D01*
G01*
X342116Y322175D02*
G03*
X338687Y318746I0J-3429D01*
G01*
X92472Y267380D02*
G03*
X89439Y270413I-3033J0D01*
G01*
X29944Y300404D02*
G03*
X32789Y297559I2845J0D01*
G01*
X92472Y256540D02*
G03*
X98598Y250413I6127J0D01*
G01*
X256148Y301822D02*
G03*
X249493Y304578I-6655J-6655D01*
G01*
X265572Y249735D02*
G03*
X251302Y264004I-14269J0D01*
G01*
X262966Y242193D02*
G03*
X256383Y248775I-6582J0D01*
G01*
X222580Y252193D02*
G03*
X219478Y249091I0J-3102D01*
G01*
X237216Y250575D02*
G03*
X241562Y248775I4346J4346D01*
G01*
X237216Y250575D02*
G03*
X233311Y252193I-3906J-3906D01*
G01*
X236017Y245175D02*
G03*
X238327Y244218I2310J2310D01*
G01*
X236017Y245175D02*
G03*
X234035Y245996I-1982J-1982D01*
G01*
X345774Y296909D02*
G03*
X349301Y293381I3527J0D01*
G01*
X164978Y337473D02*
G03*
X162620Y339831I-2358J0D01*
G01*
X164978Y335406D02*
G03*
X167640Y332744I2662J0D01*
G01*
X103117Y321693D02*
G03*
X100905Y319481I0J-2212D01*
G01*
Y293696D02*
G03*
X102908Y291693I2003J0D01*
G01*
X113644Y268104D02*
G03*
X112344Y266804I0J-1300D01*
G01*
X110953Y265413D02*
G03*
X112344Y266804I0J1391D01*
G01*
X37480Y230496D02*
G03*
X42925Y235941I0J5445D01*
G01*
X35312Y230496D02*
G03*
X29544Y224728I0J-5768D01*
G01*
X341980Y266993D02*
G03*
X337280Y262293I0J-4700D01*
G01*
X298280Y299693D02*
G03*
X290644Y307329I-7636J0D01*
G01*
X361380Y260696D02*
G03*
X355083Y266993I-6297J0D01*
G01*
X230216Y307329D02*
G03*
X228868Y307176I0J-6036D01*
G01*
X359451Y236175D02*
G03*
X361380Y238104I0J1929D01*
G01*
X327280Y252293D02*
G03*
X337280Y262293I0J10000D01*
G01*
X298280Y264700D02*
G03*
X310687Y252293I12406J0D01*
G01*
X228868Y307176D02*
G03*
X224180Y301293I1348J-5883D01*
G01*
X210730Y260093D02*
G03*
X224180Y273543I0J13450D01*
G01*
X209478Y260093D02*
G03*
X199478Y250093I0J-10000D01*
G01*
X196957Y238044D02*
G03*
X199478Y240564I0J2520D01*
G01*
X179478Y241185D02*
G03*
X182619Y238044I3141J0D01*
G01*
X203979Y369039D02*
G03*
X206908Y376110I-7071J7071D01*
G01*
X199744Y364804D02*
G03*
X197844Y360217I4587J-4587D01*
G01*
X195944Y366004D02*
G03*
X196908Y368330I-2326J2326D01*
G01*
X195944Y366004D02*
G03*
X195144Y364073I1931J-1931D01*
G01*
X214478Y326384D02*
G03*
X213144Y329604I-4554J0D01*
G01*
X213083Y329665D02*
G03*
X208644Y331504I-4439J-4439D01*
G01*
X198844Y333904D02*
G03*
X204638Y331504I5794J5794D01*
G01*
X197844Y336318D02*
G03*
X198844Y333904I3414J0D01*
G01*
X199478Y318577D02*
G03*
X197644Y323004I-6261J0D01*
G01*
X195144Y329040D02*
G03*
X197644Y323004I8535J0D01*
G01*
X166908Y370240D02*
G03*
X174644Y362504I7736J0D01*
G01*
X186944Y357004D02*
G03*
X181444Y362504I-5500J0D01*
G01*
X189444Y359904D02*
G03*
X183244Y366104I-6200J0D01*
G01*
X176908Y371315D02*
G03*
X182118Y366104I5211J0D01*
G01*
X192012Y364936D02*
G03*
X189244Y367704I-2768J0D01*
G01*
X186908Y370040D02*
G03*
X189244Y367704I2336J0D01*
G01*
X194478Y321638D02*
G03*
X193212Y322904I-1266J0D01*
G01*
X192012Y324104D02*
G03*
X193212Y322904I1200J0D01*
G01*
X185744D02*
G03*
X186944Y324104I0J1200D01*
G01*
X185744Y322904D02*
G03*
X184478Y321638I0J-1266D01*
G01*
X173780Y328469D02*
G03*
X176592Y325658I2812J0D01*
G01*
D02*
G03*
X174478Y323543I0J-2114D01*
G01*
X173780Y337293D02*
G03*
X171242Y339831I-2538J0D01*
G01*
X92380Y359293D02*
G03*
X82380Y369293I-10000J0D01*
G01*
X90180Y316693D02*
G03*
X92380Y318893I0J2200D01*
G01*
X60580Y369293D02*
G03*
X50580Y359293I0J-10000D01*
G01*
X47433Y304646D02*
G03*
X50580Y307793I0J3147D01*
G01*
X98626Y263009D02*
G03*
X102293Y260413I3667J1292D01*
G01*
X98405Y264301D02*
G03*
X98626Y263009I3888J0D01*
G01*
X103517Y338013D02*
G03*
X95805Y330301I0J-7712D01*
G01*
Y261655D02*
G03*
X102047Y255413I6242J0D01*
G01*
X135004Y259293D02*
G03*
X133280Y257569I0J-1724D01*
G01*
X131125Y255413D02*
G03*
X133280Y257569I0J2156D01*
G01*
X120905Y329378D02*
G03*
X112269Y338013I-8636J0D01*
G01*
X174478Y253695D02*
G03*
X168880Y259293I-5598J0D01*
G01*
X111933Y311693D02*
G03*
X120905Y320665I0J8972D01*
G01*
X133790Y296593D02*
G03*
X132846Y296693I-943J-4400D01*
G01*
X133128Y287974D02*
G03*
X137346Y292193I0J4219D01*
G01*
X114287Y287974D02*
G03*
X112905Y286593I0J-1381D01*
G01*
X111559Y270413D02*
G03*
X112905Y271760I0J1346D01*
G01*
X137346Y292193D02*
G03*
X133790Y296593I-4500J0D01*
G01*
X169478Y253141D02*
G03*
X166605Y256013I-2873J0D01*
G01*
X164701D02*
G03*
X160680Y251993I0J-4021D01*
G01*
X159180Y248327D02*
G03*
X160680Y249827I0J1500D01*
G01*
X114519Y248327D02*
G03*
X112805Y246613I0J-1713D01*
G01*
X111605Y245413D02*
G03*
X112805Y246613I0J1200D01*
G01*
X125405Y262500D02*
G03*
X125512Y262393I107J0D01*
G01*
X189478Y253695D02*
G03*
X180780Y262393I-8698J0D01*
G01*
X116905Y330913D02*
G03*
X114505Y333313I-2400J0D01*
G01*
X113305Y316693D02*
G03*
X116905Y320293I0J3600D01*
G01*
X113792Y262500D02*
G03*
X112705Y261413I0J-1087D01*
G01*
X103905Y333313D02*
G03*
X98405Y327813I0J-5500D01*
G01*
X111705Y260413D02*
G03*
X112705Y261413I0J1000D01*
G01*
X100168Y240413D02*
G03*
X96505Y238896I0J-5180D01*
G01*
D02*
G03*
X94605Y234309I4587J-4587D01*
G01*
X91676Y213067D02*
G03*
X94605Y220138I-7071J7071D01*
G01*
X80963Y206496D02*
G03*
X88034Y209425I0J10000D01*
G01*
X75763Y216496D02*
G03*
X82834Y219425I0J10000D01*
G01*
X83605Y220196D02*
G03*
X85472Y224704I-4508J4508D01*
G01*
X78005Y239496D02*
G03*
X76405Y235633I3863J-3863D01*
G01*
X74805Y228496D02*
G03*
X76405Y232359I-3863J3863D01*
G01*
X69977Y226496D02*
G03*
X74805Y228496I0J6828D01*
G01*
X80220Y240413D02*
G03*
X78005Y239496I0J-3132D01*
G01*
X78492Y245413D02*
G03*
X74105Y243596I0J-6205D01*
G01*
D02*
G03*
X73135Y241255I2341J-2341D01*
G01*
X70636Y236496D02*
G03*
X72205Y237146I0J2219D01*
G01*
D02*
G03*
X73135Y239392I-2246J2246D01*
G01*
X78268Y250413D02*
G03*
X74605Y248896I0J-5180D01*
G01*
X68811Y246496D02*
G03*
X74605Y248896I0J8194D01*
G01*
X75405Y257174D02*
G03*
X79655Y255413I4250J4250D01*
G01*
X75010Y257569D02*
G03*
X71805Y258896I-3205J-3206D01*
G01*
D02*
G03*
X67578Y257145I0J-5978D01*
G01*
X77005Y261796D02*
G03*
X80343Y260413I3338J3338D01*
G01*
X75234Y263567D02*
G03*
X68163Y266496I-7071J-7071D01*
G01*
X76205Y270517D02*
G03*
X77705Y266896I5121J0D01*
G01*
D02*
G03*
X81285Y265413I3579J3579D01*
G01*
X74905Y275496D02*
G03*
X72491Y276496I-2414J-2414D01*
G01*
X76205Y272358D02*
G03*
X74905Y275496I-4439J0D01*
G01*
X77405Y327325D02*
G03*
X79405Y322496I6828J0D01*
G01*
X77405Y333082D02*
G03*
X76405Y335496I-3414J0D01*
G01*
D02*
G03*
X73991Y336496I-2414J-2414D01*
G01*
X79405Y322496D02*
G03*
X81344Y321693I1939J1939D01*
G01*
X70263Y286496D02*
G03*
X77334Y289425I0J10000D01*
G01*
X81153Y291693D02*
G03*
X78505Y290596I0J-3745D01*
G01*
X68649Y294776D02*
G03*
X72705Y293096I4056J4056D01*
G01*
X73135D02*
G03*
X78205Y295196I0J7170D01*
G01*
X81819Y296693D02*
G03*
X78205Y295196I0J-5111D01*
G01*
X73505Y325296D02*
G03*
X70608Y326496I-2897J-2897D01*
G01*
X75505Y320468D02*
G03*
X73505Y325296I-6828J0D01*
G01*
X75505Y318996D02*
G03*
X77626Y313875I7243J0D01*
G01*
X78405Y313096D02*
G03*
X81793Y311693I3387J3387D01*
G01*
X70132Y315170D02*
G03*
X66929Y316496I-3203J-3203D01*
G01*
X76005Y309296D02*
G03*
X82290Y306693I6284J6284D01*
G01*
X74834Y303567D02*
G03*
X67763Y306496I-7071J-7071D01*
G01*
X75405Y302996D02*
G03*
X78551Y301693I3146J3146D01*
G01*
X70304Y168287D02*
G03*
X74059Y166732I3755J3756D01*
G01*
X329168Y178749D02*
G03*
X322923Y184993I-6244J0D01*
G01*
X265572Y194993D02*
G03*
X275572Y184993I10000J0D01*
G01*
X38144Y146104D02*
G03*
X35344Y148904I-2800J0D01*
G01*
X29544Y153104D02*
G03*
X33744Y148904I4200J0D01*
G01*
X44079Y126889D02*
G03*
X41163Y129804I-2915J0D01*
G01*
X38144Y132823D02*
G03*
X41163Y129804I3019J0D01*
G01*
X44079Y120804D02*
G03*
X48741Y116142I4662J0D01*
G01*
X123398Y124626D02*
G03*
X121424Y126599I-1973J0D01*
G01*
X118473D02*
G03*
X116390Y124516I0J-2083D01*
G01*
X130484Y123045D02*
G03*
X129030Y124499I-1454J0D01*
G01*
X128163Y132087D02*
G03*
X126076Y129999I0J-2087D01*
G01*
Y126321D02*
G03*
X127897Y124499I1821J0D01*
G01*
X106905Y335514D02*
G03*
X105405Y334014I0J-1500D01*
G01*
X112905Y335470D02*
G03*
X111405Y333970I0J-1500D01*
G01*
X114405D02*
G03*
X112905Y335470I-1500J0D01*
G01*
X109905Y329514D02*
G03*
X111405Y331014I0J1500D01*
G01*
X108405D02*
G03*
X109905Y329514I1500J0D01*
G01*
X104705Y333313D02*
G03*
X105405Y334014I0J700D01*
G01*
X108405D02*
G03*
X106905Y335514I-1500J0D01*
G01*
X114405Y333413D02*
G03*
X114505Y333313I100J0D01*
G01*
X139680Y245746D02*
G03*
X141180Y244246I1500J0D01*
G01*
X132180Y253005D02*
G03*
X130680Y251505I0J-1500D01*
G01*
X144180Y256793D02*
G03*
X142680Y255293I0J-1500D01*
G01*
X129180Y248327D02*
G03*
X130680Y249827I0J1500D01*
G01*
X141180Y244246D02*
G03*
X142680Y245746I0J1500D01*
G01*
X157680Y255293D02*
G03*
X156180Y256793I-1500J0D01*
G01*
X133680Y245746D02*
G03*
X135180Y244246I1500J0D01*
G01*
X145680Y245746D02*
G03*
X147180Y244246I1500J0D01*
G01*
X151680Y255293D02*
G03*
X150180Y256793I-1500J0D01*
G01*
X153180Y244246D02*
G03*
X154680Y245746I0J1500D01*
G01*
X133680Y251505D02*
G03*
X132180Y253005I-1500J0D01*
G01*
X157680Y249827D02*
G03*
X159180Y248327I1500J0D01*
G01*
X138180Y256793D02*
G03*
X136680Y255293I0J-1500D01*
G01*
X156180Y256793D02*
G03*
X154680Y255293I0J-1500D01*
G01*
X139680D02*
G03*
X138180Y256793I-1500J0D01*
G01*
X135180Y244246D02*
G03*
X136680Y245746I0J1500D01*
G01*
X150180Y256793D02*
G03*
X148680Y255293I0J-1500D01*
G01*
X151680Y245746D02*
G03*
X153180Y244246I1500J0D01*
G01*
X145680Y255293D02*
G03*
X144180Y256793I-1500J0D01*
G01*
X147180Y244246D02*
G03*
X148680Y245746I0J1500D01*
G01*
X100905Y280760D02*
G03*
X102405Y279259I1500J0D01*
G01*
X122951Y276259D02*
G03*
X124451Y277760I0J1500D01*
G01*
X112905Y271760D02*
G03*
X111405Y273259I-1500J0D01*
G01*
X128951Y282259D02*
G03*
X130451Y283759I0J1500D01*
G01*
D02*
G03*
X128951Y285260I-1500J0D01*
G01*
X100905Y274760D02*
G03*
X102405Y273259I1500J0D01*
G01*
X124451Y277760D02*
G03*
X122951Y279259I-1500J0D01*
G01*
X112905Y286593D02*
G03*
X114239Y285260I1333J0D01*
G01*
X102405Y276259D02*
G03*
X100905Y274760I0J-1500D01*
G01*
X102405Y282259D02*
G03*
X100905Y280760I0J-1500D01*
G01*
X300829Y299193D02*
Y299878D01*
X340780Y269693D02*
X354937D01*
X300780Y264793D02*
Y299193D01*
X364880Y230704D02*
Y259750D01*
X355616Y226175D02*
X360351D01*
X310780Y254793D02*
X325880D01*
X229080Y309878D02*
X290829D01*
X219080Y273851D02*
Y299878D01*
X204478Y262593D02*
X207822D01*
X194478Y245996D02*
Y252593D01*
X186574Y240593D02*
X192580D01*
X184478Y242689D02*
Y245996D01*
X193121Y174752D02*
X204727Y186358D01*
X207656Y193430D02*
Y232462D01*
X204478Y240134D02*
Y245996D01*
X232253Y299004D02*
X235344D01*
X227980Y271043D02*
Y294731D01*
X210865Y257593D02*
X214530D01*
X204478Y245996D02*
Y251206D01*
X218353Y255093D02*
X233241D01*
X214478Y245996D02*
Y251218D01*
X211300Y193251D02*
Y232462D01*
X195621Y173429D02*
X208371Y186180D01*
X214478Y240134D02*
Y245996D01*
X215800Y192290D02*
Y228879D01*
X217936Y234036D02*
X222090Y238190D01*
X224478Y243955D02*
Y245996D01*
X198121Y172129D02*
X214046Y188054D01*
X311661Y304381D02*
X338687D01*
X241321Y312378D02*
X295380D01*
X302451Y309449D02*
X304590Y307310D01*
X236100Y318500D02*
Y325300D01*
X341034Y308881D02*
X343419D01*
X338687Y304381D02*
Y306535D01*
X227800Y328000D02*
X233400D01*
X224478Y316996D02*
Y324678D01*
X244005Y268504D02*
Y299004D01*
X342116Y322175D02*
X352542D01*
X338687Y313381D02*
Y318746D01*
X92472Y256540D02*
Y267380D01*
X32789Y297559D02*
X35079D01*
X85472Y270413D02*
X89439D01*
X29944Y300404D02*
Y319213D01*
X98598Y250413D02*
X106732D01*
X239816Y304575D02*
X249493D01*
X239245Y304004D02*
X239816Y304575D01*
X235344Y304004D02*
X239245D01*
X256148Y301822D02*
X258966Y299004D01*
X355616Y325250D02*
Y333381D01*
X244005Y253218D02*
Y259504D01*
X235344Y264004D02*
X251302D01*
X241562Y248775D02*
X256383D01*
X222580Y252193D02*
X233311D01*
X238327Y244218D02*
X244005D01*
X229478Y245996D02*
X234035D01*
X345774Y296909D02*
Y304381D01*
X349301Y293381D02*
X355616D01*
X164978Y335406D02*
Y337473D01*
X160478Y339831D02*
X162620D01*
X167640Y332744D02*
X169478D01*
X102908Y291693D02*
X106732D01*
X103117Y321693D02*
X106732D01*
X100905Y293696D02*
Y319481D01*
X113644Y268104D02*
X117891D01*
X106732Y265413D02*
X110953D01*
X109453Y208642D02*
X140856D01*
X9325Y256496D02*
X17559D01*
X9325Y266496D02*
X17559D01*
X9325Y276496D02*
X17559D01*
X35312Y230496D02*
X37480D01*
X42925Y235941D02*
Y256496D01*
Y266496D02*
X53129D01*
X42925Y276496D02*
X48661D01*
X57661Y200860D02*
Y276496D01*
X119405Y269618D02*
X120458D01*
X117891Y268104D02*
X119405Y269618D01*
X341980Y266993D02*
X355083D01*
X230216Y307329D02*
X290644D01*
X298280Y264700D02*
Y299693D01*
X361380Y238104D02*
Y260696D01*
X355617Y236175D02*
X359451D01*
X310687Y252293D02*
X327280D01*
X224180Y273543D02*
Y301293D01*
X209478Y260093D02*
X210730D01*
X199478Y245996D02*
Y250093D01*
X179478Y241185D02*
Y245996D01*
X182619Y238044D02*
X196957D01*
X206908Y376110D02*
Y382121D01*
X199744Y364804D02*
X203979Y369039D01*
X197844Y336318D02*
Y360217D01*
X196908Y368330D02*
Y382121D01*
X195144Y329040D02*
Y364073D01*
X213083Y329665D02*
X213144Y329604D01*
X214478Y316996D02*
Y326384D01*
X204638Y331504D02*
X208644D01*
X199478Y316996D02*
Y318577D01*
X174644Y362504D02*
X181444D01*
X166908Y370240D02*
Y382121D01*
X186944Y324104D02*
Y357004D01*
X189444Y346604D02*
Y359904D01*
X176908Y371315D02*
Y382121D01*
X182118Y366104D02*
X183244D01*
X189478Y316996D02*
Y346604D01*
X189444D02*
X189478D01*
X192012Y324104D02*
Y364936D01*
X186908Y370040D02*
Y382121D01*
X194478Y316996D02*
Y321638D01*
X184478Y316996D02*
Y321638D01*
X173780Y328469D02*
Y337293D01*
X169478Y339831D02*
X171242D01*
X174478Y316996D02*
Y323543D01*
X345774Y311236D02*
Y313381D01*
X60580Y369293D02*
X82380D01*
X92380Y318893D02*
Y359293D01*
X85472Y316693D02*
X90180D01*
X50580Y307793D02*
Y359293D01*
X44079Y304646D02*
X47433D01*
X102293Y260413D02*
X103188D01*
X98405Y264301D02*
Y327813D01*
X102047Y255413D02*
X106732D01*
X95805Y261655D02*
Y330301D01*
X135004Y259293D02*
X168880D01*
X120905Y320665D02*
Y329378D01*
X174478Y245996D02*
Y253695D01*
X125405Y255413D02*
X131125D01*
X103517Y338013D02*
X112269D01*
X106732Y311693D02*
X111933D01*
X219478Y245996D02*
Y249091D01*
X300780Y299193D02*
X300829D01*
X235344Y257196D02*
Y259004D01*
X114287Y287974D02*
X133128D01*
X106732Y296693D02*
X132846D01*
X106732Y270413D02*
X111559D01*
X199478Y240564D02*
Y245996D01*
X194478Y242491D02*
Y245996D01*
X164701Y256013D02*
X166605D01*
X160680Y249827D02*
Y251993D01*
X125405Y248327D02*
X129180D01*
X169478Y245996D02*
Y253141D01*
X114519Y248327D02*
X116405D01*
X106732Y245413D02*
X111605D01*
X125512Y262393D02*
X180780D01*
X189478Y245996D02*
Y253695D01*
X113792Y262500D02*
X116405D01*
X106732Y316693D02*
X113305D01*
X106732Y260413D02*
X111705D01*
X116905Y320293D02*
Y330913D01*
X229478Y230248D02*
Y237335D01*
Y245996D01*
X106732Y255413D02*
X116405D01*
X24427Y256496D02*
X35078D01*
X24427Y266496D02*
X35078D01*
X24427Y276496D02*
X35078D01*
X345774Y313381D02*
X355616D01*
X169478Y339831D02*
Y346917D01*
X169478Y346917D02*
X169478Y346917D01*
X44079Y297559D02*
Y304646D01*
X35079D02*
Y311732D01*
X106732Y296693D02*
Y301693D01*
X100168Y240413D02*
X106732D01*
X94605Y220138D02*
Y234309D01*
X88034Y209425D02*
X91676Y213067D01*
X66929Y206496D02*
X80963D01*
X82834Y219425D02*
X83605Y220196D01*
X66929Y216496D02*
X75763D01*
X85472Y224704D02*
Y235413D01*
X76405Y232359D02*
Y235633D01*
X66929Y226496D02*
X69977D01*
X80220Y240413D02*
X85472D01*
X78492Y245413D02*
X85472D01*
X73135Y239392D02*
Y241255D01*
X66929Y236496D02*
X70636D01*
X78268Y250413D02*
X85472D01*
X66929Y246496D02*
X68811D01*
X75010Y257569D02*
X75405Y257174D01*
X79655Y255413D02*
X85472D01*
X66929Y256496D02*
X67578Y257145D01*
X80343Y260413D02*
X85472D01*
X75234Y263567D02*
X77005Y261796D01*
X66929Y266496D02*
X68163D01*
X81285Y265413D02*
X85472D01*
X66929Y276496D02*
X72491D01*
X76205Y270517D02*
Y272358D01*
X77405Y327325D02*
Y333082D01*
X66929Y336496D02*
X69033D01*
X73991D01*
X81344Y321693D02*
X85472D01*
X66929Y286496D02*
X70263D01*
X77334Y289425D02*
X78505Y290596D01*
X81153Y291693D02*
X85472D01*
X66929Y296496D02*
X68649Y294776D01*
X72705Y293096D02*
X73135D01*
X81819Y296693D02*
X85472D01*
X66929Y326496D02*
X70608D01*
X75505Y318996D02*
Y320468D01*
X77626Y313875D02*
X78405Y313096D01*
X81793Y311693D02*
X85472D01*
X70132Y315170D02*
X76005Y309296D01*
X82290Y306693D02*
X85472D01*
X66929Y306496D02*
X67763D01*
X74834Y303567D02*
X75405Y302996D01*
X78551Y301693D02*
X85472D01*
X140856Y208642D02*
Y226358D01*
X74059Y166732D02*
X93311D01*
X65417Y173175D02*
X70304Y168287D01*
X102311Y154378D02*
X108397Y160465D01*
X102311Y144488D02*
Y154378D01*
X322081Y168973D02*
Y173437D01*
X336648Y157913D02*
Y164437D01*
Y168901D01*
X270446Y164437D02*
Y168901D01*
Y157913D02*
Y164437D01*
X329168Y173437D02*
Y178749D01*
X275572Y184993D02*
X322923D01*
X265572Y194993D02*
Y249735D01*
X262966Y173437D02*
Y242193D01*
X198121Y130800D02*
Y172129D01*
X195621Y120276D02*
Y173429D01*
X193121Y130296D02*
Y174752D01*
X97515Y196704D02*
X109453Y208642D01*
X61817Y196704D02*
X97515D01*
X111800Y186971D02*
X114395Y189567D01*
X130820D01*
X139525Y181449D02*
Y186596D01*
X139472Y175394D02*
Y181396D01*
X139525Y181449D01*
X191080Y128255D02*
X193121Y130296D01*
X191080Y114493D02*
Y128255D01*
X201425Y127496D02*
X214325D01*
X198121Y130800D02*
X201425Y127496D01*
X219180Y109693D02*
Y122641D01*
X214325Y127496D02*
X219180Y122641D01*
X38144Y132823D02*
Y146104D01*
X29544Y153104D02*
Y224728D01*
X33744Y148904D02*
X35344D01*
X48741Y116142D02*
X62008D01*
X44079Y120804D02*
Y126889D01*
X57661Y200860D02*
X61817Y196704D01*
X215590Y106102D02*
X219180Y109693D01*
X210357Y106102D02*
X215590D01*
X192384Y113189D02*
X195621D01*
X191080Y114493D02*
X192384Y113189D01*
X322908Y103509D02*
Y110000D01*
Y103509D02*
X324734Y101683D01*
X333957D01*
X339134Y96507D01*
X267755Y100699D02*
X272932Y95522D01*
X258532Y100699D02*
X267755D01*
X107416Y175394D02*
Y182480D01*
X104305Y175396D02*
X107414D01*
X102311Y173402D02*
X104305Y175396D01*
X102311Y166732D02*
Y173402D01*
X107414Y175396D02*
X107416Y175394D01*
X256706Y102525D02*
X258532Y100699D01*
X256706Y102525D02*
Y109016D01*
X157297Y155833D02*
Y192480D01*
X145952Y144488D02*
X157297Y155833D01*
X139472Y144488D02*
X145952D01*
X155478Y194299D02*
X157297Y192480D01*
X155478Y194299D02*
Y201279D01*
X102432Y127399D02*
X107953D01*
X109697Y116142D02*
Y125655D01*
X107953Y127399D02*
X109697Y125655D01*
X98100Y131731D02*
X102432Y127399D01*
X123398Y144488D02*
X130472D01*
X118397Y166732D02*
Y170333D01*
X116416Y172315D02*
X118397Y170333D01*
X116416Y172315D02*
Y175394D01*
X136426Y175394D02*
X139472D01*
X134972Y173940D02*
X136426Y175394D01*
X134972Y168040D02*
Y173940D01*
X133665Y166732D02*
X134972Y168040D01*
X130472Y166732D02*
X133665D01*
X139472Y175394D02*
X146137D01*
X139472Y175394D02*
X139472Y175394D01*
X148932Y155295D02*
Y172599D01*
X146137Y175394D02*
X148932Y172599D01*
X143986Y150349D02*
X148932Y155295D01*
X119931Y150349D02*
X143986D01*
X118397Y148816D02*
X119931Y150349D01*
X118397Y144488D02*
Y148816D01*
X108397Y160465D02*
Y166732D01*
X102311Y160778D02*
Y166732D01*
X98100Y156567D02*
X102311Y160778D01*
X98100Y131731D02*
Y156567D01*
X104232Y130599D02*
X110832D01*
X102311Y132520D02*
X104232Y130599D01*
X102311Y132520D02*
Y135827D01*
X110832Y130599D02*
X112532Y132299D01*
Y136999D01*
X113398Y137865D01*
Y144488D01*
X123398Y121221D02*
Y124626D01*
X118473Y126599D02*
X121424D01*
X116390Y116142D02*
Y124516D01*
X130484Y121220D02*
Y123045D01*
X128163Y132087D02*
X139921D01*
X126076Y126321D02*
Y129999D01*
X127897Y124499D02*
X129030D01*
X130484Y121220D02*
X137570D01*
X154008Y112150D02*
Y115270D01*
X152628Y116650D02*
X154008Y115270D01*
X146559Y116650D02*
X152628D01*
X145346Y117862D02*
Y121150D01*
Y117862D02*
X146559Y116650D01*
X154008Y124150D02*
Y126523D01*
X152988Y127543D02*
X154008Y126523D01*
X147008Y127543D02*
X152988D01*
X130472Y128347D02*
X135232D01*
X136035Y127543D01*
X147008D01*
X137570Y121220D02*
X137571Y121221D01*
X124610Y116720D02*
X129210D01*
X123398Y117933D02*
X124610Y116720D01*
X123398Y117933D02*
Y121221D01*
X130484Y112220D02*
Y115447D01*
X129210Y116720D02*
X130484Y115447D01*
X179599Y117299D02*
X182576Y120276D01*
X175564Y117299D02*
X179599D01*
X167900Y109635D02*
X175564Y117299D01*
X340902Y130700D02*
X342908Y132706D01*
Y139015D01*
X314994Y134707D02*
Y148464D01*
Y134707D02*
X319002Y130700D01*
X340902D01*
X252800Y130700D02*
X274700D01*
X248792Y134707D02*
X252800Y130700D01*
X248792Y134707D02*
Y148465D01*
X276706Y132706D02*
Y139016D01*
X274700Y130700D02*
X276706Y132706D01*
X329168Y173437D02*
X336648D01*
X329168Y157913D02*
Y164437D01*
X322081Y148465D02*
X332908D01*
Y140000D02*
Y148465D01*
X255879D02*
X266706D01*
Y139016D02*
Y148465D01*
X262966Y157913D02*
Y164437D01*
Y173437D02*
X270446D01*
X51084Y140100D02*
X90311D01*
Y144488D01*
Y135827D02*
Y140100D01*
X46810Y135827D02*
X51084Y140100D01*
X42508Y135827D02*
X46810D01*
X111800Y172816D02*
Y186971D01*
Y172816D02*
X113398Y171219D01*
Y166732D02*
Y171219D01*
X195621Y113189D02*
X201357D01*
X195621Y120276D02*
X201357D01*
X182576D02*
X186621D01*
X167900Y88221D02*
Y109635D01*
X172621Y106102D02*
Y110821D01*
X174989Y113189D02*
X186621D01*
X172621Y110821D02*
X174989Y113189D01*
X181621Y106102D02*
X186621D01*
X178702D02*
X181621D01*
X176621Y104021D02*
X178702Y106102D01*
X176621Y97441D02*
Y104021D01*
X171621Y97441D02*
Y101600D01*
X172621Y102600D01*
Y106102D01*
X42508Y135827D02*
Y142913D01*
X33508Y125142D02*
Y135827D01*
X103905Y333313D02*
X104705D01*
X114405Y333413D02*
Y333970D01*
X111405Y333313D02*
Y333970D01*
X108405Y333313D02*
Y334014D01*
X111405Y331014D02*
Y333313D01*
X108405Y331014D02*
Y333313D01*
X148680Y248327D02*
Y255293D01*
X136680Y248327D02*
Y255293D01*
X154680Y245746D02*
Y248327D01*
X139680Y245746D02*
Y248327D01*
X130680Y249827D02*
Y251505D01*
X136680Y245746D02*
Y248327D01*
X154680D02*
Y255293D01*
X151680Y248327D02*
Y255293D01*
X139680Y248327D02*
Y255293D01*
X145680Y245746D02*
Y248327D01*
X142680Y245746D02*
Y248327D01*
X151680Y245746D02*
Y248327D01*
X133680Y245746D02*
Y248327D01*
X142680D02*
Y255293D01*
X133680Y248327D02*
Y251505D01*
X148680Y245746D02*
Y248327D01*
X157680Y249827D02*
Y255293D01*
X145680Y248327D02*
Y255293D01*
X112905Y282259D02*
X128951D01*
X112905Y279259D02*
X122951D01*
X102405Y282259D02*
X112905D01*
X102405Y273259D02*
X111405D01*
X112905Y276259D02*
X122951D01*
X114239Y285260D02*
X128951D01*
X102405Y276259D02*
X112905D01*
X102405Y279259D02*
X112905D01*
X339134Y79184D02*
X341687Y76630D01*
X350213D01*
X339134Y79184D02*
Y96507D01*
X272932Y78199D02*
Y95522D01*
X275485Y75646D02*
X284011D01*
X272932Y78199D02*
X275485Y75646D01*
X202032Y37199D02*
X209100Y44267D01*
X175999Y37199D02*
X202032D01*
X174332Y35532D02*
X175999Y37199D01*
X158101Y39794D02*
X158196Y39699D01*
X158101Y39794D02*
X158101D01*
X200996Y39699D02*
X206600Y45303D01*
X158196Y39699D02*
X200996D01*
X154332Y36025D02*
X158101Y39794D01*
X199961Y42199D02*
X204100Y46338D01*
X159232Y42199D02*
X199961D01*
X157927Y43504D02*
X159232Y42199D01*
X200646Y97102D02*
X210357D01*
X196857Y93314D02*
X200646Y97102D01*
X199232Y76099D02*
X201832D01*
X196857Y78474D02*
X199232Y76099D01*
X196857Y78474D02*
Y93314D01*
X201832Y76099D02*
X204100Y73831D01*
Y46338D02*
Y73831D01*
X201357Y82612D02*
X204888D01*
X206600Y80900D01*
Y45303D02*
Y80900D01*
X209100Y44267D02*
Y81936D01*
X206600Y84435D02*
X209100Y81936D01*
X142971Y43504D02*
X157927D01*
X206600Y84435D02*
Y88315D01*
X201357Y90026D02*
X204888D01*
X206600Y88315D01*
X125020Y38500D02*
X134298D01*
X122800Y40720D02*
X125020Y38500D01*
X122800Y40720D02*
Y45500D01*
X134298Y38500D02*
X136774Y36024D01*
X122800Y45500D02*
X124544Y47244D01*
X136774D01*
X127326Y43504D02*
X142971D01*
X136774Y36024D02*
X142971D01*
X167900Y88221D02*
X170021Y86100D01*
X176621Y75197D02*
Y83479D01*
X174000Y86100D02*
X176621Y83479D01*
X170021Y86100D02*
X174000D01*
X183300Y91300D02*
X187038D01*
X181621Y92979D02*
X183300Y91300D01*
X187038D02*
X188311Y90026D01*
X192357D01*
X181621Y92979D02*
Y97441D01*
X188311Y82612D02*
X192357D01*
X186621Y80921D02*
X188311Y82612D01*
X186621Y75197D02*
Y80921D01*
X174332Y30315D02*
Y35532D01*
X181621Y66536D02*
X186621D01*
X181621D02*
Y75197D01*
X176621Y67621D02*
Y75197D01*
X175535Y66536D02*
X176621Y67621D01*
X172621Y66536D02*
X175535D01*
X154332Y30315D02*
Y36025D01*
D11*
X349347Y279475D02*
G03*
X355616Y285744I0J6269D01*
G01*
X327726Y279475D02*
G03*
X320026Y271775I0J-7700D01*
G01*
Y230994D02*
G03*
X334845Y216175I14819J0D01*
G01*
X238478Y237335D02*
G03*
X233978Y232835I0J-4500D01*
G01*
X228921Y221831D02*
G03*
X234009Y226919I0J5088D01*
G01*
X139471Y164093D02*
G03*
X140925Y160583I4964J0D01*
G01*
X327726Y279475D02*
X349347D01*
X320026Y262531D02*
Y271775D01*
Y230994D02*
Y237335D01*
X334845Y216175D02*
X345617D01*
X238478Y237335D02*
X252671D01*
X233978Y231180D02*
Y232835D01*
X221643Y221831D02*
X228921D01*
X355616Y285744D02*
Y293381D01*
X277868Y237335D02*
X320026D01*
X234009Y226919D02*
Y231180D01*
X233978D02*
X234009D01*
X122480Y300693D02*
Y306615D01*
X115393Y300693D02*
Y306615D01*
X53129Y266496D02*
Y281491D01*
X49062Y285559D02*
X53129Y281491D01*
X23528Y285559D02*
X49062D01*
X142444Y300693D02*
Y339704D01*
Y288504D02*
Y300693D01*
X129567D02*
X142444D01*
X135652Y346496D02*
X142444Y339704D01*
X96880Y346496D02*
X135652D01*
X23528Y318234D02*
Y346220D01*
X19544Y350204D02*
X23528Y346220D01*
X29944Y319213D02*
X35079D01*
X24506D02*
X29944D01*
X142444Y288504D02*
X147444Y283504D01*
X106732Y235413D02*
X116390D01*
X19189Y297559D02*
X23528D01*
X16844Y299904D02*
X19189Y297559D01*
X16844Y299904D02*
Y311787D01*
X14527Y314104D02*
X16844Y311787D01*
X14527Y314104D02*
Y318234D01*
Y326496D01*
X23528Y318234D02*
X24506Y319213D01*
X66929Y346496D02*
X87880D01*
X122480Y291693D02*
X129567D01*
X115393D02*
X122480D01*
X106732D02*
X115393D01*
X44528Y315472D02*
Y326496D01*
X155478Y201279D02*
Y208642D01*
X149856D02*
X155478D01*
X221643Y171048D02*
Y205150D01*
X235417Y157275D02*
X248603D01*
X221643Y171048D02*
X235417Y157275D01*
X53129Y190267D02*
X56400Y186996D01*
X53129Y190267D02*
Y266496D01*
X255879Y157465D02*
Y164437D01*
X248792D02*
X255879D01*
X139472Y164093D02*
Y166732D01*
X140925Y160583D02*
X142472Y159037D01*
Y155240D02*
Y159037D01*
X153578D02*
Y166732D01*
X140832Y153599D02*
X142472Y155240D01*
X111232Y153599D02*
X140832D01*
X108397Y150765D02*
X111232Y153599D01*
X108397Y144488D02*
Y150765D01*
X320525Y152964D02*
X322081Y154520D01*
X320524Y152964D02*
X320525Y152964D01*
X257435Y152964D02*
X320524D01*
X322081Y157464D02*
Y164071D01*
X255879Y154521D02*
X257435Y152964D01*
X322081Y157465D02*
X322081Y157464D01*
X314994Y157465D02*
X322081D01*
X322081Y154520D02*
Y157464D01*
X255879Y154521D02*
Y157465D01*
X248792D02*
X255879D01*
X139472Y166732D02*
X144578D01*
X108397Y135827D02*
Y144488D01*
X155873Y94871D02*
Y104029D01*
X145346D02*
Y112150D01*
X137571Y104100D02*
Y112221D01*
X123398Y104100D02*
Y112221D01*
X89618Y104013D02*
Y116142D01*
X127326Y50984D02*
Y63225D01*
X138623Y31523D02*
X153000D01*
X136774Y29675D02*
X138623Y31523D01*
X136774Y28543D02*
Y29675D01*
X171621Y75197D02*
Y78879D01*
X169200Y81300D02*
X171621Y78879D01*
X166110Y81300D02*
X169200D01*
X164534Y79724D02*
X166110Y81300D01*
X164534Y75536D02*
Y79724D01*
X158873Y75536D02*
X164534D01*
X155873Y78535D02*
X158873Y75536D01*
X155873Y78535D02*
Y85871D01*
X66946Y28543D02*
X73694D01*
D12*
X20642Y157480D02*
D03*
X36642D02*
D03*
D13*
X19685Y170275D02*
D03*
X43307D02*
D03*
X196446Y205150D02*
D03*
X221643D02*
D03*
X196446Y221831D02*
D03*
X221643D02*
D03*
X252671Y237335D02*
D03*
X277868D02*
D03*
X19685Y79724D02*
D03*
X43307D02*
D03*
X19685Y94488D02*
D03*
X43307D02*
D03*
X338310Y47927D02*
D03*
X313113D02*
D03*
X272108D02*
D03*
X246911D02*
D03*
D14*
X142971Y36024D02*
D03*
Y27024D02*
D03*
Y43504D02*
D03*
Y52504D02*
D03*
X345774Y304381D02*
D03*
Y313381D02*
D03*
X338687D02*
D03*
Y304381D02*
D03*
X244005Y268504D02*
D03*
Y259504D02*
D03*
Y253218D02*
D03*
Y244218D02*
D03*
X129567Y291693D02*
D03*
Y300693D02*
D03*
X115393Y291693D02*
D03*
Y300693D02*
D03*
X122480Y291693D02*
D03*
Y300693D02*
D03*
X125108Y239886D02*
D03*
Y230886D02*
D03*
X132194Y239886D02*
D03*
Y230886D02*
D03*
X147008Y127543D02*
D03*
Y136543D02*
D03*
X130484Y121220D02*
D03*
Y112220D02*
D03*
X137571Y112221D02*
D03*
Y121221D02*
D03*
X145346Y112150D02*
D03*
Y121150D02*
D03*
X336648Y164437D02*
D03*
Y173437D02*
D03*
X329168Y164437D02*
D03*
Y173437D02*
D03*
X322081Y148465D02*
D03*
Y157465D02*
D03*
X314994Y157464D02*
D03*
Y148464D02*
D03*
X270446Y164437D02*
D03*
Y173437D02*
D03*
X262966Y164437D02*
D03*
Y173437D02*
D03*
X255879Y148465D02*
D03*
Y157465D02*
D03*
X248792D02*
D03*
Y148465D02*
D03*
X210357Y106102D02*
D03*
Y97102D02*
D03*
X248792Y173437D02*
D03*
Y164437D02*
D03*
X255879Y173437D02*
D03*
Y164437D02*
D03*
X322081Y173437D02*
D03*
Y164437D02*
D03*
X123398Y121221D02*
D03*
Y112221D02*
D03*
X155873Y94871D02*
D03*
Y85871D02*
D03*
X164534Y66536D02*
D03*
Y75536D02*
D03*
D15*
X136774Y28543D02*
D03*
X127326Y32283D02*
D03*
X136774Y36024D02*
D03*
X127326Y50984D02*
D03*
X136774Y47244D02*
D03*
X127326Y43504D02*
D03*
X35079Y319213D02*
D03*
X44528Y315472D02*
D03*
X35079Y311732D02*
D03*
X130472Y128347D02*
D03*
X139921Y132087D02*
D03*
X130472Y135827D02*
D03*
D16*
X320026Y237335D02*
D03*
Y262531D02*
D03*
X178651Y208642D02*
D03*
Y232264D02*
D03*
X154332Y30315D02*
D03*
Y55512D02*
D03*
X174332D02*
D03*
Y30315D02*
D03*
D17*
X194332D02*
D03*
Y49315D02*
D03*
D18*
X125405Y248327D02*
D03*
X116405D02*
D03*
X125405Y255413D02*
D03*
X116405D02*
D03*
X125405Y262500D02*
D03*
X116405D02*
D03*
X30463Y66929D02*
D03*
X21463D02*
D03*
X81539Y90742D02*
D03*
X72539D02*
D03*
X146944Y325658D02*
D03*
X137944D02*
D03*
X48661Y276496D02*
D03*
X57661D02*
D03*
X96880Y346496D02*
D03*
X87880D02*
D03*
X229478Y237335D02*
D03*
X238478D02*
D03*
X44079Y297559D02*
D03*
X35079D02*
D03*
X44079Y304646D02*
D03*
X35079D02*
D03*
X42925Y276496D02*
D03*
X33925D02*
D03*
X42925Y266496D02*
D03*
X33925D02*
D03*
X42925Y256496D02*
D03*
X33925D02*
D03*
X164478Y208642D02*
D03*
X155478D02*
D03*
X149856D02*
D03*
X140856D02*
D03*
X160478Y339831D02*
D03*
X169478D02*
D03*
X23528Y318234D02*
D03*
X14527D02*
D03*
X160478Y332744D02*
D03*
X169478D02*
D03*
X160478Y325658D02*
D03*
X169478D02*
D03*
X155478Y201279D02*
D03*
X164478D02*
D03*
X238478Y230248D02*
D03*
X229478D02*
D03*
X160478Y346917D02*
D03*
X169478D02*
D03*
X152797Y179267D02*
D03*
X161797D02*
D03*
X130820Y189567D02*
D03*
X139820D02*
D03*
X195621Y120276D02*
D03*
X186621D02*
D03*
X195621Y113189D02*
D03*
X186621D02*
D03*
X210357D02*
D03*
X201357D02*
D03*
X172621Y106102D02*
D03*
X181621D02*
D03*
X186621D02*
D03*
X195621D02*
D03*
X42508Y142913D02*
D03*
X33508D02*
D03*
X130472Y144488D02*
D03*
X139472D02*
D03*
X42507Y135827D02*
D03*
X33507D02*
D03*
X139472Y175394D02*
D03*
X130472D02*
D03*
X107416Y182480D02*
D03*
X116416D02*
D03*
X107416Y175394D02*
D03*
X116416D02*
D03*
X139472Y166732D02*
D03*
X130472D02*
D03*
X93311D02*
D03*
X102311D02*
D03*
X153578D02*
D03*
X144578D02*
D03*
X210357Y120276D02*
D03*
X201357D02*
D03*
X130472Y182480D02*
D03*
X139472D02*
D03*
X117397Y135827D02*
D03*
X108397D02*
D03*
X192357Y82612D02*
D03*
X201357D02*
D03*
X192357Y90026D02*
D03*
X201357D02*
D03*
X172621Y66536D02*
D03*
X181621D02*
D03*
X186621D02*
D03*
X195621D02*
D03*
X82694Y28543D02*
D03*
X73694D02*
D03*
X66946D02*
D03*
X57946D02*
D03*
D19*
X52508Y79724D02*
D03*
X71508D02*
D03*
D20*
X23528Y297559D02*
D03*
X154008Y112150D02*
D03*
X82437Y134158D02*
D03*
X155873Y78535D02*
D03*
D21*
X23528Y285559D02*
D03*
X154008Y124150D02*
D03*
X82437Y146158D02*
D03*
X155873Y66536D02*
D03*
D22*
X106732Y326693D02*
D03*
Y321693D02*
D03*
Y316693D02*
D03*
Y311693D02*
D03*
Y306693D02*
D03*
Y301693D02*
D03*
Y296693D02*
D03*
Y291693D02*
D03*
X85472Y326693D02*
D03*
Y321693D02*
D03*
Y316693D02*
D03*
Y311693D02*
D03*
Y306693D02*
D03*
Y301693D02*
D03*
Y296693D02*
D03*
Y291693D02*
D03*
Y235413D02*
D03*
Y240413D02*
D03*
Y245413D02*
D03*
Y250413D02*
D03*
Y255413D02*
D03*
Y260413D02*
D03*
Y265413D02*
D03*
Y270413D02*
D03*
X106732Y235413D02*
D03*
Y240413D02*
D03*
Y245413D02*
D03*
Y250413D02*
D03*
Y255413D02*
D03*
Y260413D02*
D03*
Y265413D02*
D03*
Y270413D02*
D03*
D23*
X140856Y226358D02*
D03*
D24*
X164478Y217303D02*
D03*
Y226358D02*
D03*
Y235413D02*
D03*
D25*
X244005Y323807D02*
D03*
X258966D02*
D03*
Y299004D02*
D03*
X244005D02*
D03*
D26*
X179478Y325658D02*
D03*
Y340618D02*
D03*
X204281D02*
D03*
Y325658D02*
D03*
D27*
X194927Y280382D02*
D03*
D28*
X164478Y245996D02*
D03*
X169478D02*
D03*
X174478D02*
D03*
X179478D02*
D03*
X184478D02*
D03*
X189478D02*
D03*
X194478D02*
D03*
X199478D02*
D03*
X204478D02*
D03*
X209478D02*
D03*
X214478D02*
D03*
X219478D02*
D03*
X224478D02*
D03*
X229478D02*
D03*
Y316996D02*
D03*
X224478D02*
D03*
X219478D02*
D03*
X214478D02*
D03*
X209478D02*
D03*
X204478D02*
D03*
X199478D02*
D03*
X194478D02*
D03*
X189478D02*
D03*
X184478D02*
D03*
X179478D02*
D03*
X174478D02*
D03*
X169478D02*
D03*
X164478D02*
D03*
D29*
X235344Y259004D02*
D03*
Y264004D02*
D03*
Y269004D02*
D03*
Y274004D02*
D03*
Y279004D02*
D03*
Y284004D02*
D03*
Y289004D02*
D03*
Y294004D02*
D03*
Y299004D02*
D03*
Y304004D02*
D03*
D30*
X17559Y276496D02*
D03*
X24252D02*
D03*
X17559Y266496D02*
D03*
X24252D02*
D03*
X17559Y256496D02*
D03*
X24252D02*
D03*
D31*
X153578Y159037D02*
D03*
X90311Y135827D02*
D03*
Y144488D02*
D03*
X142472Y159037D02*
D03*
D32*
X165578D02*
D03*
X102311Y135827D02*
D03*
Y144488D02*
D03*
X130472Y159037D02*
D03*
D33*
X123398Y144488D02*
D03*
X118397D02*
D03*
X113398D02*
D03*
X108397D02*
D03*
X123398Y166732D02*
D03*
X118397D02*
D03*
X113398D02*
D03*
X108397D02*
D03*
X186621Y75197D02*
D03*
X181621D02*
D03*
X176621D02*
D03*
X171621D02*
D03*
X186621Y97441D02*
D03*
X181621D02*
D03*
X176621D02*
D03*
X171621D02*
D03*
D34*
X33508Y125142D02*
D03*
Y107142D02*
D03*
X350213Y75646D02*
D03*
Y93646D02*
D03*
X284011Y75646D02*
D03*
Y93646D02*
D03*
D35*
X62008Y116142D02*
D03*
X321713Y84646D02*
D03*
X255511D02*
D03*
D36*
X329168Y157913D02*
D03*
X332908Y148465D02*
D03*
X336648Y157913D02*
D03*
X262966D02*
D03*
X266706Y148465D02*
D03*
X270446Y157913D02*
D03*
D37*
X103004Y82992D02*
D03*
D38*
X89618Y116142D02*
D03*
X96311D02*
D03*
X109697D02*
D03*
X103004D02*
D03*
X116390D02*
D03*
D39*
X313113Y48911D02*
Y63675D01*
X246911Y47927D02*
Y62691D01*
D40*
X44528Y326496D02*
D03*
D41*
X14527D02*
D03*
D42*
X176908Y382121D02*
D03*
X186908D02*
D03*
X196908D02*
D03*
X166908D02*
D03*
D43*
X206908D02*
D03*
D44*
X19685Y374016D02*
D03*
X354331D02*
D03*
X19685Y19685D02*
D03*
X354331D02*
D03*
D45*
X19685Y383858D02*
D03*
X12725Y380976D02*
D03*
X26645D02*
D03*
X12725Y367056D02*
D03*
X26645D02*
D03*
X9842Y374016D02*
D03*
X29528D02*
D03*
X19685Y364173D02*
D03*
X354331Y383858D02*
D03*
X347371Y380976D02*
D03*
X361291D02*
D03*
X347371Y367056D02*
D03*
X361291D02*
D03*
X344488Y374016D02*
D03*
X364173D02*
D03*
X354331Y364173D02*
D03*
X19685Y29528D02*
D03*
X12725Y26645D02*
D03*
X26645D02*
D03*
X12725Y12725D02*
D03*
X26645D02*
D03*
X9842Y19685D02*
D03*
X29528D02*
D03*
X19685Y9842D02*
D03*
X354331Y29528D02*
D03*
X347371Y26645D02*
D03*
X361291D02*
D03*
X347371Y12725D02*
D03*
X361291D02*
D03*
X344488Y19685D02*
D03*
X364173D02*
D03*
X354331Y9842D02*
D03*
D46*
X355616Y333381D02*
D03*
Y313381D02*
D03*
X291732Y203150D02*
D03*
Y359842D02*
D03*
X80319Y18399D02*
D03*
X315350D02*
D03*
X268344D02*
D03*
X127326D02*
D03*
X174332D02*
D03*
D47*
X355616Y293381D02*
D03*
D48*
X332908Y110000D02*
D03*
X342908D02*
D03*
X322908D02*
D03*
Y140000D02*
D03*
X332908D02*
D03*
X266706Y109016D02*
D03*
X276706D02*
D03*
X256706D02*
D03*
Y139016D02*
D03*
X266706D02*
D03*
D49*
X342908Y140000D02*
D03*
X276706Y139016D02*
D03*
D50*
X66929Y246496D02*
D03*
Y266496D02*
D03*
Y256496D02*
D03*
Y236496D02*
D03*
Y226496D02*
D03*
Y206496D02*
D03*
Y216496D02*
D03*
D51*
Y286496D02*
D03*
Y336496D02*
D03*
Y346496D02*
D03*
Y276496D02*
D03*
D52*
Y306496D02*
D03*
Y326496D02*
D03*
Y316496D02*
D03*
Y296496D02*
D03*
D53*
Y356496D02*
D03*
D54*
X59055Y157480D02*
D03*
X78740Y157480D02*
D03*
X43307Y66929D02*
D03*
X43307Y47244D02*
D03*
D55*
X345617Y246175D02*
D03*
X345617Y216175D02*
D03*
X355616Y256175D02*
D03*
X345617Y256175D02*
D03*
X355616Y246175D02*
D03*
X355617Y236175D02*
D03*
X355616Y226175D02*
D03*
X345617Y226175D02*
D03*
X345617Y236175D02*
D03*
D56*
X355617Y216175D02*
D03*
D57*
X60320Y18399D02*
D03*
X295350D02*
D03*
X248344D02*
D03*
X107326D02*
D03*
X154332D02*
D03*
D58*
X313113Y62691D02*
D03*
X352513D02*
D03*
X246911D02*
D03*
X286311D02*
D03*
M02*
