M48
;Layer_Color=9474304
;FILE_FORMAT=2:5
INCH,LZ
;TYPE=PLATED
T1F00S00C0.02800
T2F00S00C0.03150
T3F00S00C0.03400
T4F00S00C0.03543
T5F00S00C0.04000
T6F00S00C0.04724
T7F00S00C0.07874
T8F00S00C0.13780
%
T01
X0012725Y0012725
X0009842Y0019685
X0012725Y0026645
X0019685Y0029528
X0026645Y0026645
X0029528Y0019685
X0026645Y0012725
X0019685Y0009842
X0347371Y0012725
X0344488Y0019685
X0347371Y0026645
X0354331Y0029528
X0361291Y0026645
X0364173Y0019685
X0361291Y0012725
X0354331Y0009842
X0026645Y0367056
X0019685Y0364173
X0012725Y0367056
X0347371
X0354331Y0364173
X0361291Y0367056
X0364173Y0374016
X0361291Y0380976
X0354331Y0383858
X0347371Y0380976
X0344488Y0374016
X0029528
X0026645Y0380976
X0019685Y0383858
X0012725Y0380976
X0009842Y0374016
T02
X0043307Y0047244
X0246911Y0062691
X0286311
X0313113
X0352513
X0342908Y011
X0332908
X0322908
Y014
X0332908
X0342908
X0276706Y0139016
X0266706
X0256706
Y0109016
X0266706
X0276706
X007874Y015748
X0059055Y015748
X0043307Y0066929
T03
X0066929Y0206496
Y0216496
Y0226496
Y0236496
Y0246496
Y0256496
Y0266496
Y0276496
Y0286496
Y0296496
Y0306496
Y0316496
Y0326496
Y0336496
Y0346496
Y0356496
X0166908Y0382121
X0176908
X0186908
X0196908
X0206908
T04
X0014527Y0326496
X0044528
T05
X0345617Y0216175
X0345617Y0226175
X0355616Y0226175
X0355617Y0216175
X0355617Y0236175
X0345617
X0345617Y0246175
Y0256175
X0355616Y0256175
X0355616Y0246175
T06
X006032Y0018399
X0080319
X0107326
X0127326
X0154332
X0174332
X0248344
X0268344
X029535
X031535
X0355616Y0293381
Y0313381
Y0333381
T07
X0291732Y020315
Y0359842
T08
X0019685Y0019685
X0354331
Y0374016
X0019685
M30
