G04*
G04 #@! TF.GenerationSoftware,Altium Limited,Altium Designer,18.0.7 (293)*
G04*
G04 Layer_Color=16711935*
%FSLAX25Y25*%
%MOIN*%
G70*
G01*
G75*
%ADD59C,0.01000*%
%ADD60C,0.03150*%
D59*
X8714Y-246175D02*
G03*
X28399Y-226490I0J19685D01*
G01*
X28399Y127840D02*
G03*
X8714Y147526I-19685J0D01*
G01*
X-345617Y-226490D02*
G03*
X-325932Y-246175I19685J0D01*
G01*
X-325932Y147526D02*
G03*
X-345617Y127840I0J-19685D01*
G01*
X28399D02*
X28399Y-226490D01*
X-345617D02*
X-345617Y127840D01*
X-325932Y147526D02*
X8714Y147526D01*
X-325932Y-246175D02*
X8714D01*
D60*
X-59811Y-231202D02*
Y-222179D01*
X-49111Y-211479D01*
X7991Y-139588D02*
Y-134095D01*
X4184Y-143395D02*
X7991Y-139588D01*
X-7309Y-143395D02*
X4184D01*
X-8659Y-142045D02*
X-7309Y-143395D01*
X-16911Y-216279D02*
X-10778D01*
X-2309Y-184079D02*
Y-177779D01*
Y-184079D02*
X1391Y-187779D01*
Y-204111D02*
Y-187779D01*
X-10778Y-216279D02*
X1391Y-204111D01*
X-69465Y-211679D02*
X-64811Y-207025D01*
Y-187779D01*
X-68511Y-184079D02*
X-64811Y-187779D01*
X-68511Y-184079D02*
Y-177779D01*
X-74861Y-143029D02*
X-73511Y-144379D01*
X-62018D01*
X-58211Y-140573D01*
Y-135079D01*
X-100908Y-122159D02*
X11804D01*
X-121207Y-142458D02*
X-100908Y-122159D01*
X-121207Y-227776D02*
Y-142458D01*
M02*
