G04*
G04 #@! TF.GenerationSoftware,Altium Limited,Altium Designer,18.0.7 (293)*
G04*
G04 Layer_Color=16711935*
%FSLAX25Y25*%
%MOIN*%
G70*
G01*
G75*
%ADD10R,0.09800X0.09855*%
%ADD11R,0.07887X0.13792*%
%ADD12R,0.05894X0.04331*%
%ADD13R,0.04540X0.04343*%
%ADD14R,0.13792X0.07887*%
%ADD15R,0.06300X0.04737*%
%ADD16R,0.14300X0.06800*%
%ADD17R,0.04331X0.05894*%
%ADD18R,0.06800X0.14300*%
%ADD19R,0.04737X0.06300*%
%ADD20R,0.05524X0.04343*%
%ADD21R,0.05524X0.04343*%
%ADD22O,0.08674X0.02965*%
%ADD23R,0.10249X0.13792*%
%ADD24R,0.10249X0.04737*%
%ADD25R,0.04737X0.07493*%
%ADD26R,0.07493X0.04737*%
%ADD27R,0.24422X0.24422*%
%ADD28R,0.03950X0.07887*%
%ADD29R,0.07887X0.03950*%
%ADD30R,0.05131X0.04737*%
%ADD31R,0.04343X0.05524*%
%ADD32R,0.04343X0.05524*%
%ADD33O,0.03162X0.07887*%
G04:AMPARAMS|DCode=34|XSize=70.99mil|YSize=126.11mil|CornerRadius=19.75mil|HoleSize=0mil|Usage=FLASHONLY|Rotation=90.000|XOffset=0mil|YOffset=0mil|HoleType=Round|Shape=RoundedRectangle|*
%AMROUNDEDRECTD34*
21,1,0.07099,0.08661,0,0,90.0*
21,1,0.03150,0.12611,0,0,90.0*
1,1,0.03950,0.04331,0.01575*
1,1,0.03950,0.04331,-0.01575*
1,1,0.03950,-0.04331,-0.01575*
1,1,0.03950,-0.04331,0.01575*
%
%ADD34ROUNDEDRECTD34*%
G04:AMPARAMS|DCode=35|XSize=236.35mil|YSize=252.1mil|CornerRadius=61.09mil|HoleSize=0mil|Usage=FLASHONLY|Rotation=90.000|XOffset=0mil|YOffset=0mil|HoleType=Round|Shape=RoundedRectangle|*
%AMROUNDEDRECTD35*
21,1,0.23635,0.12992,0,0,90.0*
21,1,0.11417,0.25210,0,0,90.0*
1,1,0.12217,0.06496,0.05709*
1,1,0.12217,0.06496,-0.05709*
1,1,0.12217,-0.06496,-0.05709*
1,1,0.12217,-0.06496,0.05709*
%
%ADD35ROUNDEDRECTD35*%
%ADD36R,0.04343X0.04540*%
%ADD37R,0.34265X0.28359*%
%ADD38R,0.04343X0.14895*%
%ADD39O,0.07887X0.09461*%
%ADD40R,0.07887X0.09461*%
%ADD41O,0.08300X0.09800*%
%ADD42R,0.08300X0.09800*%
%ADD43C,0.28359*%
%ADD44C,0.05800*%
%ADD45C,0.10642*%
%ADD46R,0.10642X0.10642*%
%ADD47O,0.06706X0.09855*%
%ADD48R,0.06706X0.09855*%
%ADD49O,0.10800X0.06800*%
%ADD50O,0.10800X0.06300*%
%ADD51O,0.10800X0.07300*%
%ADD52R,0.10800X0.07300*%
%ADD53C,0.06800*%
%ADD54C,0.07800*%
%ADD55R,0.07800X0.07800*%
%ADD56R,0.10642X0.10642*%
%ADD57C,0.08674*%
G36*
X86004Y69792D02*
D01*
D02*
G37*
G36*
X125445Y69787D02*
Y59598D01*
X80563D01*
Y69787D01*
X125445D01*
D02*
G37*
D10*
X20642Y157480D02*
D03*
X36642D02*
D03*
D11*
X19685Y170275D02*
D03*
X43307D02*
D03*
X196446Y205150D02*
D03*
X221643D02*
D03*
X196446Y221831D02*
D03*
X221643D02*
D03*
X252671Y237335D02*
D03*
X277868D02*
D03*
X19685Y79724D02*
D03*
X43307D02*
D03*
X19685Y94488D02*
D03*
X43307D02*
D03*
X338310Y47927D02*
D03*
X313113D02*
D03*
X272108D02*
D03*
X246911D02*
D03*
D12*
X142971Y36024D02*
D03*
Y27024D02*
D03*
Y43504D02*
D03*
Y52504D02*
D03*
X345774Y304381D02*
D03*
Y313381D02*
D03*
X244005Y268504D02*
D03*
Y259504D02*
D03*
Y253218D02*
D03*
Y244218D02*
D03*
X129567Y291693D02*
D03*
Y300693D02*
D03*
X147008Y127543D02*
D03*
Y136543D02*
D03*
X130484Y121220D02*
D03*
Y112220D02*
D03*
X137571Y112221D02*
D03*
Y121221D02*
D03*
X145346Y112150D02*
D03*
Y121150D02*
D03*
X336648Y164437D02*
D03*
Y173437D02*
D03*
X329168Y164437D02*
D03*
Y173437D02*
D03*
X322081Y148465D02*
D03*
Y157465D02*
D03*
X314994Y157464D02*
D03*
Y148464D02*
D03*
X270446Y164437D02*
D03*
Y173437D02*
D03*
X262966Y164437D02*
D03*
Y173437D02*
D03*
X255879Y148465D02*
D03*
Y157465D02*
D03*
X248792D02*
D03*
Y148465D02*
D03*
X210357Y106102D02*
D03*
Y97102D02*
D03*
X155873Y94871D02*
D03*
Y85871D02*
D03*
D13*
X136774Y28543D02*
D03*
X127326Y32283D02*
D03*
X136774Y36024D02*
D03*
X127326Y50984D02*
D03*
X136774Y47244D02*
D03*
X127326Y43504D02*
D03*
X35079Y319213D02*
D03*
X44528Y315472D02*
D03*
X35079Y311732D02*
D03*
X130472Y128347D02*
D03*
X139921Y132087D02*
D03*
X130472Y135827D02*
D03*
D14*
X320026Y237335D02*
D03*
Y262531D02*
D03*
X178651Y208642D02*
D03*
Y232264D02*
D03*
X154332Y30315D02*
D03*
Y55512D02*
D03*
X174332D02*
D03*
Y30315D02*
D03*
D15*
X338687Y313381D02*
D03*
Y304381D02*
D03*
X115393Y291693D02*
D03*
Y300693D02*
D03*
X122480Y291693D02*
D03*
Y300693D02*
D03*
X125108Y239886D02*
D03*
Y230886D02*
D03*
X132194Y239886D02*
D03*
Y230886D02*
D03*
X248792Y173437D02*
D03*
Y164437D02*
D03*
X255879Y173437D02*
D03*
Y164437D02*
D03*
X322081Y173437D02*
D03*
Y164437D02*
D03*
X123398Y121221D02*
D03*
Y112221D02*
D03*
X164534Y66536D02*
D03*
Y75536D02*
D03*
D16*
X194332Y30315D02*
D03*
Y49315D02*
D03*
D17*
X125405Y248327D02*
D03*
X116405D02*
D03*
X125405Y255413D02*
D03*
X116405D02*
D03*
X125405Y262500D02*
D03*
X116405D02*
D03*
X30463Y66929D02*
D03*
X21463D02*
D03*
X146944Y325658D02*
D03*
X137944D02*
D03*
X48661Y276496D02*
D03*
X57661D02*
D03*
X96880Y346496D02*
D03*
X87880D02*
D03*
X229478Y237335D02*
D03*
X238478D02*
D03*
X44079Y297559D02*
D03*
X35079D02*
D03*
X44079Y304646D02*
D03*
X35079D02*
D03*
X42925Y276496D02*
D03*
X33925D02*
D03*
X42925Y266496D02*
D03*
X33925D02*
D03*
X42925Y256496D02*
D03*
X33925D02*
D03*
X164478Y208642D02*
D03*
X155478D02*
D03*
X149856D02*
D03*
X140856D02*
D03*
X160478Y339831D02*
D03*
X169478D02*
D03*
X152797Y179267D02*
D03*
X161797D02*
D03*
X130820Y189567D02*
D03*
X139820D02*
D03*
X195621Y120276D02*
D03*
X186621D02*
D03*
X195621Y113189D02*
D03*
X186621D02*
D03*
X210357D02*
D03*
X201357D02*
D03*
X172621Y106102D02*
D03*
X181621D02*
D03*
X186621D02*
D03*
X195621D02*
D03*
X42508Y142913D02*
D03*
X33508D02*
D03*
X130472Y144488D02*
D03*
X139472D02*
D03*
X42507Y135827D02*
D03*
X33507D02*
D03*
X139472Y175394D02*
D03*
X130472D02*
D03*
X107416Y182480D02*
D03*
X116416D02*
D03*
X107416Y175394D02*
D03*
X116416D02*
D03*
X139472Y166732D02*
D03*
X130472D02*
D03*
X93311D02*
D03*
X102311D02*
D03*
X153578D02*
D03*
X144578D02*
D03*
X210357Y120276D02*
D03*
X201357D02*
D03*
X192357Y82612D02*
D03*
X201357D02*
D03*
X192357Y90026D02*
D03*
X201357D02*
D03*
X172621Y66536D02*
D03*
X181621D02*
D03*
X186621D02*
D03*
X195621D02*
D03*
D18*
X52508Y79724D02*
D03*
X71508D02*
D03*
D19*
X81539Y90742D02*
D03*
X72539D02*
D03*
X23528Y318234D02*
D03*
X14527D02*
D03*
X160478Y332744D02*
D03*
X169478D02*
D03*
X160478Y325658D02*
D03*
X169478D02*
D03*
X155478Y201279D02*
D03*
X164478D02*
D03*
X238478Y230248D02*
D03*
X229478D02*
D03*
X160478Y346917D02*
D03*
X169478D02*
D03*
X130472Y182480D02*
D03*
X139472D02*
D03*
X117397Y135827D02*
D03*
X108397D02*
D03*
X82694Y28543D02*
D03*
X73694D02*
D03*
X66946D02*
D03*
X57946D02*
D03*
D20*
X23528Y297559D02*
D03*
X154008Y112150D02*
D03*
X82437Y134158D02*
D03*
X155873Y78535D02*
D03*
D21*
X23528Y285559D02*
D03*
X154008Y124150D02*
D03*
X82437Y146158D02*
D03*
X155873Y66536D02*
D03*
D22*
X106732Y326693D02*
D03*
Y321693D02*
D03*
Y316693D02*
D03*
Y311693D02*
D03*
Y306693D02*
D03*
Y301693D02*
D03*
Y296693D02*
D03*
Y291693D02*
D03*
X85472Y326693D02*
D03*
Y321693D02*
D03*
Y316693D02*
D03*
Y311693D02*
D03*
Y306693D02*
D03*
Y301693D02*
D03*
Y296693D02*
D03*
Y291693D02*
D03*
Y235413D02*
D03*
Y240413D02*
D03*
Y245413D02*
D03*
Y250413D02*
D03*
Y255413D02*
D03*
Y260413D02*
D03*
Y265413D02*
D03*
Y270413D02*
D03*
X106732Y235413D02*
D03*
Y240413D02*
D03*
Y245413D02*
D03*
Y250413D02*
D03*
Y255413D02*
D03*
Y260413D02*
D03*
Y265413D02*
D03*
Y270413D02*
D03*
D23*
X140856Y226358D02*
D03*
D24*
X164478Y217303D02*
D03*
Y226358D02*
D03*
Y235413D02*
D03*
D25*
X244005Y323807D02*
D03*
X258966D02*
D03*
Y299004D02*
D03*
X244005D02*
D03*
D26*
X179478Y325658D02*
D03*
Y340618D02*
D03*
X204281D02*
D03*
Y325658D02*
D03*
D27*
X194927Y280382D02*
D03*
D28*
X164478Y245996D02*
D03*
X169478D02*
D03*
X174478D02*
D03*
X179478D02*
D03*
X184478D02*
D03*
X189478D02*
D03*
X194478D02*
D03*
X199478D02*
D03*
X204478D02*
D03*
X209478D02*
D03*
X214478D02*
D03*
X219478D02*
D03*
X224478D02*
D03*
X229478D02*
D03*
Y316996D02*
D03*
X224478D02*
D03*
X219478D02*
D03*
X214478D02*
D03*
X209478D02*
D03*
X204478D02*
D03*
X199478D02*
D03*
X194478D02*
D03*
X189478D02*
D03*
X184478D02*
D03*
X179478D02*
D03*
X174478D02*
D03*
X169478D02*
D03*
X164478D02*
D03*
D29*
X235344Y259004D02*
D03*
Y264004D02*
D03*
Y269004D02*
D03*
Y274004D02*
D03*
Y279004D02*
D03*
Y284004D02*
D03*
Y289004D02*
D03*
Y294004D02*
D03*
Y299004D02*
D03*
Y304004D02*
D03*
D30*
X17559Y276496D02*
D03*
X24252D02*
D03*
X17559Y266496D02*
D03*
X24252D02*
D03*
X17559Y256496D02*
D03*
X24252D02*
D03*
D31*
X153578Y159037D02*
D03*
X90311Y135827D02*
D03*
Y144488D02*
D03*
X142472Y159037D02*
D03*
D32*
X165578D02*
D03*
X102311Y135827D02*
D03*
Y144488D02*
D03*
X130472Y159037D02*
D03*
D33*
X123398Y144488D02*
D03*
X118397D02*
D03*
X113398D02*
D03*
X108397D02*
D03*
X123398Y166732D02*
D03*
X118397D02*
D03*
X113398D02*
D03*
X108397D02*
D03*
X186621Y75197D02*
D03*
X181621D02*
D03*
X176621D02*
D03*
X171621D02*
D03*
X186621Y97441D02*
D03*
X181621D02*
D03*
X176621D02*
D03*
X171621D02*
D03*
D34*
X33508Y125142D02*
D03*
Y107142D02*
D03*
X350213Y75646D02*
D03*
Y93646D02*
D03*
X284011Y75646D02*
D03*
Y93646D02*
D03*
D35*
X62008Y116142D02*
D03*
X321713Y84646D02*
D03*
X255511D02*
D03*
D36*
X329168Y157913D02*
D03*
X332908Y148465D02*
D03*
X336648Y157913D02*
D03*
X262966D02*
D03*
X266706Y148465D02*
D03*
X270446Y157913D02*
D03*
D37*
X103004Y82992D02*
D03*
D38*
X89618Y116142D02*
D03*
X96311D02*
D03*
X109697D02*
D03*
X103004D02*
D03*
X116390D02*
D03*
D39*
X44528Y326496D02*
D03*
D40*
X14527D02*
D03*
D41*
X176908Y382121D02*
D03*
X186908D02*
D03*
X196908D02*
D03*
X166908D02*
D03*
D42*
X206908D02*
D03*
D43*
X19685Y374016D02*
D03*
X354331D02*
D03*
X19685Y19685D02*
D03*
X354331D02*
D03*
D44*
X19685Y383858D02*
D03*
X12725Y380976D02*
D03*
X26645D02*
D03*
X12725Y367056D02*
D03*
X26645D02*
D03*
X9842Y374016D02*
D03*
X29528D02*
D03*
X19685Y364173D02*
D03*
X354331Y383858D02*
D03*
X347371Y380976D02*
D03*
X361291D02*
D03*
X347371Y367056D02*
D03*
X361291D02*
D03*
X344488Y374016D02*
D03*
X364173D02*
D03*
X354331Y364173D02*
D03*
X19685Y29528D02*
D03*
X12725Y26645D02*
D03*
X26645D02*
D03*
X12725Y12725D02*
D03*
X26645D02*
D03*
X9842Y19685D02*
D03*
X29528D02*
D03*
X19685Y9842D02*
D03*
X354331Y29528D02*
D03*
X347371Y26645D02*
D03*
X361291D02*
D03*
X347371Y12725D02*
D03*
X361291D02*
D03*
X344488Y19685D02*
D03*
X364173D02*
D03*
X354331Y9842D02*
D03*
D45*
X355616Y333381D02*
D03*
Y313381D02*
D03*
X291732Y203150D02*
D03*
Y359842D02*
D03*
X80319Y18399D02*
D03*
X315350D02*
D03*
X268344D02*
D03*
X127326D02*
D03*
X174332D02*
D03*
D46*
X355616Y293381D02*
D03*
D47*
X332908Y110000D02*
D03*
X342908D02*
D03*
X322908D02*
D03*
Y140000D02*
D03*
X332908D02*
D03*
X266706Y109016D02*
D03*
X276706D02*
D03*
X256706D02*
D03*
Y139016D02*
D03*
X266706D02*
D03*
D48*
X342908Y140000D02*
D03*
X276706Y139016D02*
D03*
D49*
X66929Y246496D02*
D03*
Y266496D02*
D03*
Y256496D02*
D03*
Y236496D02*
D03*
Y226496D02*
D03*
Y206496D02*
D03*
Y216496D02*
D03*
D50*
Y286496D02*
D03*
Y336496D02*
D03*
Y346496D02*
D03*
Y276496D02*
D03*
D51*
Y306496D02*
D03*
Y326496D02*
D03*
Y316496D02*
D03*
Y296496D02*
D03*
D52*
Y356496D02*
D03*
D53*
X59055Y157480D02*
D03*
X78740Y157480D02*
D03*
X43307Y66929D02*
D03*
X43307Y47244D02*
D03*
D54*
X345617Y246175D02*
D03*
X345617Y216175D02*
D03*
X355616Y256175D02*
D03*
X345617Y256175D02*
D03*
X355616Y246175D02*
D03*
X355617Y236175D02*
D03*
X355616Y226175D02*
D03*
X345617Y226175D02*
D03*
X345617Y236175D02*
D03*
D55*
X355617Y216175D02*
D03*
D56*
X60320Y18399D02*
D03*
X295350D02*
D03*
X248344D02*
D03*
X107326D02*
D03*
X154332D02*
D03*
D57*
X313113Y62691D02*
D03*
X352513D02*
D03*
X246911D02*
D03*
X286311D02*
D03*
M02*
