G04*
G04 #@! TF.GenerationSoftware,Altium Limited,Altium Designer,18.0.7 (293)*
G04*
G04 Layer_Physical_Order=1*
G04 Layer_Color=255*
%FSLAX25Y25*%
%MOIN*%
G70*
G01*
G75*
%ADD10O,0.07500X0.09000*%
%ADD11R,0.07500X0.09000*%
%ADD12C,0.27559*%
%ADD13C,0.05000*%
%ADD14C,0.09843*%
%ADD15R,0.09843X0.09843*%
%ADD16R,0.07087X0.08661*%
%ADD17O,0.07087X0.08661*%
%ADD18O,0.05906X0.09055*%
%ADD19R,0.05906X0.09055*%
%ADD20O,0.10000X0.06000*%
%ADD21O,0.10000X0.05500*%
%ADD22O,0.10000X0.06500*%
%ADD23R,0.10000X0.06500*%
%ADD24C,0.06000*%
%ADD25C,0.07000*%
%ADD26R,0.07000X0.07000*%
%ADD27R,0.09843X0.09843*%
%ADD28C,0.07874*%
D10*
X176908Y382121D02*
D03*
X186908D02*
D03*
X196908D02*
D03*
X166908D02*
D03*
D11*
X206908D02*
D03*
D12*
X19685Y374016D02*
D03*
X354331D02*
D03*
X19685Y19685D02*
D03*
X354331D02*
D03*
D13*
X19685Y383858D02*
D03*
X12725Y380976D02*
D03*
X26645D02*
D03*
X12725Y367056D02*
D03*
X26645D02*
D03*
X9842Y374016D02*
D03*
X29528D02*
D03*
X19685Y364173D02*
D03*
X354331Y383858D02*
D03*
X347371Y380976D02*
D03*
X361291D02*
D03*
X347371Y367056D02*
D03*
X361291D02*
D03*
X344488Y374016D02*
D03*
X364173D02*
D03*
X354331Y364173D02*
D03*
X19685Y29528D02*
D03*
X12725Y26645D02*
D03*
X26645D02*
D03*
X12725Y12725D02*
D03*
X26645D02*
D03*
X9842Y19685D02*
D03*
X29528D02*
D03*
X19685Y9842D02*
D03*
X354331Y29528D02*
D03*
X347371Y26645D02*
D03*
X361291D02*
D03*
X347371Y12725D02*
D03*
X361291D02*
D03*
X344488Y19685D02*
D03*
X364173D02*
D03*
X354331Y9842D02*
D03*
D14*
X355616Y333381D02*
D03*
Y313381D02*
D03*
X291732Y203150D02*
D03*
Y359842D02*
D03*
X80319Y18399D02*
D03*
X315350D02*
D03*
X268344D02*
D03*
X127326D02*
D03*
X174332D02*
D03*
D15*
X355616Y293381D02*
D03*
D16*
X14527Y326496D02*
D03*
D17*
X44528D02*
D03*
D18*
X332908Y110000D02*
D03*
X342908D02*
D03*
X322908D02*
D03*
Y140000D02*
D03*
X332908D02*
D03*
X266706Y109016D02*
D03*
X276706D02*
D03*
X256706D02*
D03*
Y139016D02*
D03*
X266706D02*
D03*
D19*
X342908Y140000D02*
D03*
X276706Y139016D02*
D03*
D20*
X66929Y246496D02*
D03*
Y266496D02*
D03*
Y256496D02*
D03*
Y236496D02*
D03*
Y226496D02*
D03*
Y206496D02*
D03*
Y216496D02*
D03*
D21*
Y286496D02*
D03*
Y336496D02*
D03*
Y346496D02*
D03*
Y276496D02*
D03*
D22*
Y306496D02*
D03*
Y326496D02*
D03*
Y316496D02*
D03*
Y296496D02*
D03*
D23*
Y356496D02*
D03*
D24*
X59055Y157480D02*
D03*
X78740Y157480D02*
D03*
X43307Y66929D02*
D03*
X43307Y47244D02*
D03*
D25*
X345617Y246175D02*
D03*
X345617Y216175D02*
D03*
X355616Y256175D02*
D03*
X345617Y256175D02*
D03*
X355616Y246175D02*
D03*
X355617Y236175D02*
D03*
X355616Y226175D02*
D03*
X345617Y226175D02*
D03*
X345617Y236175D02*
D03*
D26*
X355617Y216175D02*
D03*
D27*
X60320Y18399D02*
D03*
X295350D02*
D03*
X248344D02*
D03*
X107326D02*
D03*
X154332D02*
D03*
D28*
X313113Y62691D02*
D03*
X352513D02*
D03*
X246911D02*
D03*
X286311D02*
D03*
M02*
